<?xml version="1.0" encoding="utf-8" standalone="yes"?>
<!DOCTYPE svg PUBLIC "-//W3C//DTD SVG 1.1//EN" "http://www.w3.org/Graphics/SVG/1.1/DTD/svg11.dtd">
<svg width="567" height="590" viewBox="0 0 567 590" style="fill:none;stroke:none;fill-rule:evenodd;clip-rule:evenodd;stroke-linecap:round;stroke-linejoin:round;stroke-miterlimit:1.5;" version="1.1" xmlns="http://www.w3.org/2000/svg" xmlns:xlink="http://www.w3.org/1999/xlink"><style class="text-font-style fontImports" data-font-family="Roboto">@import url('https://fonts.googleapis.com/css2?family=Roboto:wght@400;700&amp;display=block');</style><g id="items" style="isolation: isolate"><g id="blend" style="mix-blend-mode: normal"><g id="g-root-0.cu_sy_qpodz31pdawpb-fill" data-item-order="-229818" transform="translate(237.0009765625, 99)"><g id="0.cu_sy_qpodz31pdawpb-fill" stroke="none" fill="#545454"><g><path d="M 10 34L 28 10L 28 18.0001L 52 18.0001L 52 10.0002L 70 34.0002L 52 58.0002L 52 50.0001L 28 50.0001L 28 58L 10 34Z"></path></g></g></g><g id="g-root-0.cu_1_sy_m9uvun1pdaxhk-fill" data-item-order="-229815" transform="translate(15, 182.9990234375)"></g><g id="g-root-0.cu_2_sy_m9uvun1pdaxhl-fill" data-item-order="-229813" transform="translate(267.0009765625, 75)"></g><g id="g-root-tx_altocost_m98hxb1pd14i3-fill" data-item-order="0" transform="translate(375.0009765625, 471)"><g id="tx_altocost_m98hxb1pd14i3-fill" stroke="none" fill="#f4f4f4"><g><text style="font: 20px Roboto, sans-serif; white-space: pre;" font-size="20px" font-family="Roboto, sans-serif"><tspan x="12" y="34" dominant-baseline="ideographic">Alto costo de </tspan><tspan x="12" y="58" dominant-baseline="ideographic">implementación</tspan></text></g></g></g><g id="g-root-tx_contras_1q8uz7j1pd11xn-fill" data-item-order="0" transform="translate(375.0009765625, 105)"><g id="tx_contras_1q8uz7j1pd11xn-fill" stroke="none" fill="#f4f4f4"><g><text style="font: bold 30px Roboto, sans-serif; white-space: pre;" font-weight="bold" font-size="30px" font-family="Roboto, sans-serif"><tspan x="12" y="45" dominant-baseline="ideographic">Contras</tspan></text></g></g></g><g id="g-root-3_18lbt8f1pczo5e-fill" data-item-order="0" transform="translate(15.0009765625, 219)"></g><g id="g-root-tx_aprendiz_1q8uz7j1pd11xm-fill" data-item-order="0" transform="translate(75.0009765625, 219)"><g id="tx_aprendiz_1q8uz7j1pd11xm-fill" stroke="none" fill="#f4f4f4"><g><text style="font: 20px Roboto, sans-serif; white-space: pre;" font-size="20px" font-family="Roboto, sans-serif"><tspan x="12" y="34" dominant-baseline="ideographic">Aprendizaje </tspan><tspan x="12" y="58" dominant-baseline="ideographic">individualizado</tspan></text></g></g></g><g id="g-root-dock_dg3e0v1pcwwzq-fill" data-item-order="0" transform="translate(315.0009765625, 219)"></g><g id="g-root-tx_dependen_4ikyin1pd13pi-fill" data-item-order="0" transform="translate(375.0009765625, 207)"><g id="tx_dependen_4ikyin1pd13pi-fill" stroke="none" fill="#f4f4f4"><g><text style="font: 20px Roboto, sans-serif; white-space: pre;" font-size="20px" font-family="Roboto, sans-serif"><tspan x="12" y="34" dominant-baseline="ideographic">Dependencia </tspan><tspan x="12" y="58" dominant-baseline="ideographic">de la </tspan><tspan x="12" y="82" dominant-baseline="ideographic">tecnología</tspan></text></g></g></g><g id="g-root-tx_preocupa_8yegn31pd12x9-fill" data-item-order="0" transform="translate(375.0009765625, 279)"><g id="tx_preocupa_8yegn31pd12x9-fill" stroke="none" fill="#f4f4f4"><g><text style="font: 20px Roboto, sans-serif; white-space: pre;" font-size="20px" font-family="Roboto, sans-serif"><tspan x="12" y="34" dominant-baseline="ideographic">Preocupaciones </tspan><tspan x="12" y="58" dominant-baseline="ideographic">sobre la </tspan><tspan x="12" y="82" dominant-baseline="ideographic">privacidad de </tspan><tspan x="12" y="106" dominant-baseline="ideographic">los datos</tspan></text></g></g></g><g id="g-root-load_hs61mn1pczpqh-fill" data-item-order="0" transform="translate(15.0009765625, 303)"></g><g id="g-root-tx_ritmodee_2rge71pd14ht-fill" data-item-order="0" transform="translate(75.0009765625, 291)"><g id="tx_ritmodee_2rge71pd14ht-fill" stroke="none" fill="#f4f4f4"><g><text style="font: 20px Roboto, sans-serif; white-space: pre;" font-size="20px" font-family="Roboto, sans-serif"><tspan x="12" y="34" dominant-baseline="ideographic">Ritmo de </tspan><tspan x="12" y="58" dominant-baseline="ideographic">enseñanza </tspan><tspan x="12" y="82" dominant-baseline="ideographic">adaptativo</tspan></text></g></g></g><g id="g-root-lock_143mvun1pcr951-fill" data-item-order="0" transform="translate(315.0009765625, 303)"></g><g id="g-root-2_18k2v271pcy8lk-fill" data-item-order="0" transform="translate(15.0009765625, 387)"></g><g id="g-root-tx_enfoquee_2rge71pd14hs-fill" data-item-order="0" transform="translate(75.0009765625, 387)"><g id="tx_enfoquee_2rge71pd14hs-fill" stroke="none" fill="#f4f4f4"><g><text style="font: 20px Roboto, sans-serif; white-space: pre;" font-size="20px" font-family="Roboto, sans-serif"><tspan x="12" y="34" dominant-baseline="ideographic">Enfoque en </tspan><tspan x="12" y="58" dominant-baseline="ideographic">áreas débiles</tspan></text></g></g></g><g id="g-root-dete_18egla71pcr8y4-fill" data-item-order="0" transform="translate(315.0009765625, 387)"></g><g id="g-root-tx_potencia_hu1gvz1pd124k-fill" data-item-order="0" transform="translate(375.0009765625, 387)"><g id="tx_potencia_hu1gvz1pd124k-fill" stroke="none" fill="#f4f4f4"><g><text style="font: 20px Roboto, sans-serif; white-space: pre;" font-size="20px" font-family="Roboto, sans-serif"><tspan x="12" y="34" dominant-baseline="ideographic">Potencial de </tspan><tspan x="12" y="58" dominant-baseline="ideographic">sesgo</tspan></text></g></g></g><g id="g-root-10_1cua3en1pcybkf-fill" data-item-order="0" transform="translate(15.0009765625, 471)"></g><g id="g-root-tx_dominioa_4ikyin1pd13pj-fill" data-item-order="0" transform="translate(75.0009765625, 471)"><g id="tx_dominioa_4ikyin1pd13pj-fill" stroke="none" fill="#f4f4f4"><g><text style="font: 20px Roboto, sans-serif; white-space: pre;" font-size="20px" font-family="Roboto, sans-serif"><tspan x="12" y="34" dominant-baseline="ideographic">Dominio </tspan><tspan x="12" y="58" dominant-baseline="ideographic">acelerado</tspan></text></g></g></g><g id="g-root-diag_8z0ukf1pdavwr-fill" data-item-order="0" transform="translate(315.0009765625, 471)"></g><g id="g-root-tx_iaenelap_hu1dq71pday9u-fill" data-item-order="0" transform="translate(111.0009765625, 39)"><g id="tx_iaenelap_hu1dq71pday9u-fill" stroke="none" fill="#f4f4f4"><g><text style="font: 20px Roboto, sans-serif; white-space: pre;" font-size="20px" font-family="Roboto, sans-serif"><tspan x="14.1" y="34" dominant-baseline="ideographic">IA en el aprendizaje personalizado</tspan></text></g></g></g><g id="g-root-tx_pros_1cxegu71pd13ik-fill" data-item-order="0" transform="translate(75.0009765625, 105)"><g id="tx_pros_1cxegu71pd13ik-fill" stroke="none" fill="#f4f4f4"><g><text style="font: bold 30px Roboto, sans-serif; white-space: pre;" font-weight="bold" font-size="30px" font-family="Roboto, sans-serif"><tspan x="12" y="45" dominant-baseline="ideographic">Pros</tspan></text></g></g></g><g id="g-root-0.cu_sy_qpodz31pdawpb-stroke" data-item-order="-229818" transform="translate(237.0009765625, 99)"><g id="0.cu_sy_qpodz31pdawpb-stroke" fill="none" stroke-linecap="round" stroke-linejoin="round" stroke-miterlimit="4" stroke="#b7b7b7" stroke-width="2"><g><path d="M 10 34L 28 10L 28 18.0001L 52 18.0001L 52 10.0002L 70 34.0002L 52 58.0002L 52 50.0001L 28 50.0001L 28 58L 10 34ZM 30.598633 28.373184L 34.998633 39.480384M 35.198633 39.097384L 39.598633 28.660484M 49.398633 30.192484C 49.065333 29.937084 48.731933 29.681784 48.398633 29.426484C 47.798633 28.851984 46.831933 28.628484 45.498633 28.756184C 44.165333 28.883884 43.465333 29.522184 43.398633 30.671184C 43.265333 31.820284 44.231933 32.905384 46.298633 33.926784C 48.431933 34.884284 49.465333 36.001384 49.398633 37.278084C 49.398633 38.554784 48.631933 39.320784 47.098633 39.576084C 45.498633 39.767584 44.431933 39.416584 43.898633 38.522884C 43.565333 38.075984 43.265333 37.629184 42.998633 37.182384"></path></g></g></g><g id="g-root-0.cu_1_sy_m9uvun1pdaxhk-stroke" data-item-order="-229815" transform="translate(15, 182.9990234375)"><g id="0.cu_1_sy_m9uvun1pdaxhk-stroke" fill="none" stroke-linecap="round" stroke-linejoin="round" stroke-miterlimit="4" stroke="#b7b7b7" stroke-width="2"><g><path d="M 514.0005 10L 10 10.0008"></path></g></g></g><g id="g-root-0.cu_2_sy_m9uvun1pdaxhl-stroke" data-item-order="-229813" transform="translate(267.0009765625, 75)"><g id="0.cu_2_sy_m9uvun1pdaxhl-stroke" fill="none" stroke-linecap="round" stroke-linejoin="round" stroke-miterlimit="4" stroke="#b7b7b7" stroke-width="2"><g><path d="M 10.0001 298L 10 214M 10.0001 382L 10 298M 10.0001 466L 10 382M 10.0001 214L 10 118M 10 118L 10 80M 10 36L 10 10"></path></g></g></g><g id="g-root-tx_altocost_m98hxb1pd14i3-stroke" data-item-order="0" transform="translate(375.0009765625, 471)"></g><g id="g-root-tx_contras_1q8uz7j1pd11xn-stroke" data-item-order="0" transform="translate(375.0009765625, 105)"></g><g id="g-root-3_18lbt8f1pczo5e-stroke" data-item-order="0" transform="translate(15.0009765625, 219)"><g id="3_18lbt8f1pczo5e-stroke" fill="none" stroke-linecap="round" stroke-linejoin="round" stroke-miterlimit="4" stroke="#43dd93" stroke-width="2"><g><path d="M 37 39L 55 39C 56.104568 39 57 38.104568 57 37L 57 13C 57 11.895431 56.104568 11 55 11L 31 11M 39.604 27L 47 27M 38.127998 31.030001L 42.382 19.667999C 42.52861 19.278154 42.901497 19.02 43.318001 19.02C 43.734501 19.02 44.107391 19.278154 44.254002 19.667999L 48.507999 31.030001M 25 57L 26 45L 31 45L 31 38C 31 32.477154 26.522848 28 21 28C 15.477153 28 11 32.477154 11 38L 11 45L 16 45L 17 57ZM 14 18C 14 21.865993 17.134007 25 21 25C 24.865993 25 28 21.865993 28 18C 28 14.134007 24.865993 11 21 11C 17.134007 11 14 14.134007 14 18Z"></path></g></g></g><g id="g-root-tx_aprendiz_1q8uz7j1pd11xm-stroke" data-item-order="0" transform="translate(75.0009765625, 219)"></g><g id="g-root-dock_dg3e0v1pcwwzq-stroke" data-item-order="0" transform="translate(315.0009765625, 219)"><g id="dock_dg3e0v1pcwwzq-stroke" fill="none" stroke-linecap="round" stroke-linejoin="round" stroke-miterlimit="4" stroke="#fb6762" stroke-width="2"><g><path d="M 10 10M 48.5 41.2812L 49.613602 41.080601L 52.700001 40.5C 54.900002 39.900002 56.299999 37.900002 55.900002 35.700001L 53.099998 21.9C 52.700001 19.700001 50.700001 18.299999 48.5 18.700001L 47.099998 18.9L 43.099998 26.1C 42.099998 27.9 39.700001 28.700001 37.700001 27.9C 36.700001 27.299999 35.900002 26.5 35.5 25.5C 35.099998 24.5 35.299999 23.299999 35.700001 22.299999L 36.299999 21.1L 15.30002 25.299999C 13.100019 25.9 11.700004 27.9 12.1 30.1L 15.1 43.700001C 15.44202 45.5812 16.95384 46.877399 18.76026 46.9636L 19.484379 46.9636M 10 10M 21.109379 24.140621L 23.73464 36.4828M 10 10M 43.078201 26.1875L 45.078201 36.546799M 48.5 54.5C 48.5 55.700001 47.700001 56.5 46.5 56.5L 21.50004 56.5C 20.300041 56.5 19.50004 55.700001 19.50004 54.5L 19.50004 40.5C 19.50004 38.299999 21.300041 36.5 23.50004 36.5L 44.5 36.5C 46.700001 36.5 48.5 38.299999 48.5 40.5L 48.5 54.5ZM 14.50004 56.5L 53.700001 56.5M 26.100019 23.1L 26.100019 18.5C 26.100019 16.9 26.700001 15.3 27.9 14.3L 30.700001 11.5M 10 10M 38.099998 17.1L 36.299999 21.1M 10 10M 47.099998 18.9L 51.099998 11.7M 36.299999 46.5L 31.419399 46.5M 47.52 31.604C 47.519722 32.592785 48.321213 33.394501 49.309998 33.394501C 50.298782 33.394501 51.100273 32.592785 51.099998 31.603998C 51.100273 30.615213 50.298782 29.813498 49.309998 29.813498C 48.321213 29.813498 47.519722 30.615213 47.519997 31.603998M 15.92 31.007999C 15.919722 31.996784 16.721214 32.7985 17.709999 32.7985C 18.698784 32.7985 19.500277 31.996784 19.5 31.007999C 19.500277 30.019213 18.698784 29.217497 17.709999 29.217497C 16.721214 29.217497 15.919722 30.019213 15.92 31.007999"></path></g></g></g><g id="g-root-tx_dependen_4ikyin1pd13pi-stroke" data-item-order="0" transform="translate(375.0009765625, 207)"></g><g id="g-root-tx_preocupa_8yegn31pd12x9-stroke" data-item-order="0" transform="translate(375.0009765625, 279)"></g><g id="g-root-load_hs61mn1pczpqh-stroke" data-item-order="0" transform="translate(15.0009765625, 303)"><g id="load_hs61mn1pczpqh-stroke" fill="none" stroke-linecap="round" stroke-linejoin="round" stroke-miterlimit="4" stroke="#4f91fc" stroke-width="2"><g><path d="M 44.5 56.5C 51.127399 56.5 56.5 51.127399 56.5 44.5C 56.5 37.872601 51.127399 32.5 44.5 32.5C 37.872601 32.5 32.5 37.872601 32.5 44.5C 32.5 51.127399 37.872601 56.5 44.5 56.5ZM 49.700001 44.500198L 44.5 44.500198L 44.5 39.099998M 25.2694 52.897999L 11.5 56.5L 15.09202 42.6926M 25.2694 52.897999L 15.09202 42.6926M 25.2694 52.897999L 27.06542 51.097M 15.09202 42.6926L 44.027802 13.67682C 46.821602 10.875308 51.4114 10.675198 54.404598 13.67682C 57.198399 16.47834 57.198399 21.08074 54.404598 24.08238L 51.012199 27.48424M 43.229401 14.4772L 53.6208 24.86846M 45.025398 26.684019L 38.041 19.68022"></path></g></g></g><g id="g-root-tx_ritmodee_2rge71pd14ht-stroke" data-item-order="0" transform="translate(75.0009765625, 291)"></g><g id="g-root-lock_143mvun1pcr951-stroke" data-item-order="0" transform="translate(315.0009765625, 303)"><g id="lock_143mvun1pcr951-stroke" fill="none" stroke-linecap="round" stroke-linejoin="round" stroke-miterlimit="4" stroke="#f79438" stroke-width="2"><g><path d="M 19 33L 38 33M 19 21L 33 21M 19 39L 32 39M 19 45L 32 45M 19 27L 38 27M 33 57L 13 57C 11.895431 57 11 56.104568 11 55L 11 13C 11 11.895431 11.895431 11 13 11L 39.585999 11C 40.11639 11.000113 40.625015 11.210901 41 11.586L 48.414001 19C 48.789101 19.374985 48.999886 19.88361 49 20.414L 49 27M 41 41L 55 41C 55 41 57 41 57 43L 57 54.998001C 57 54.998001 57 56.998001 55 56.998001L 41 56.998001C 41 56.998001 39 56.998001 39 54.998001L 39 43C 39 43 39 41 41 41M 45.5 49.125999C 45.5 50.506714 46.619289 51.625999 48 51.625999C 49.380711 51.625999 50.5 50.506714 50.5 49.125999C 50.5 47.745289 49.380711 46.625999 48 46.625999C 46.619289 46.625999 45.5 47.745289 45.5 49.125999M 53 38C 53 35.238579 50.761425 33 48 33C 45.238575 33 43 35.238579 43 38L 43 41L 53 41Z"></path></g></g></g><g id="g-root-2_18k2v271pcy8lk-stroke" data-item-order="0" transform="translate(15.0009765625, 387)"><g id="2_18k2v271pcy8lk-stroke" fill="none" stroke-linecap="round" stroke-linejoin="round" stroke-miterlimit="4" stroke="#a6da37" stroke-width="2"><g><path d="M 36.48 36.98C 36.827034 37.948929 37.002987 38.970806 37 40C 37.007744 44.304981 33.972198 48.015411 29.751007 48.860653C 25.529816 49.705898 21.299652 47.450336 19.649218 43.474289C 17.998783 39.498238 19.388142 34.910049 22.96706 32.517509C 26.545979 30.124971 31.316814 30.595018 34.360001 33.639999M 42.68 31.42C 47.276806 39.143959 45.083679 49.110222 37.669128 54.191025C 30.254576 59.271824 20.168573 57.719795 14.624529 50.644932C 9.080484 43.570068 9.985079 33.405525 16.691357 27.420881C 23.397633 21.436237 33.599201 21.689701 40 28M 11 57L 15.98 52.02M 40.02 52.02L 45 57M 42.860001 25.139999L 42.139999 17.360001L 48.5 11L 50.639999 17.360001L 57 19.5L 50.639999 25.860001L 42.860001 25.139999ZM 48 20L 28 40"></path></g></g></g><g id="g-root-tx_enfoquee_2rge71pd14hs-stroke" data-item-order="0" transform="translate(75.0009765625, 387)"></g><g id="g-root-dete_18egla71pcr8y4-stroke" data-item-order="0" transform="translate(315.0009765625, 387)"><g id="dete_18egla71pcr8y4-stroke" fill="none" stroke-linecap="round" stroke-linejoin="round" stroke-miterlimit="4" stroke="#ffe711" stroke-width="2"><g><path d="M 11.5 27.9L 11.5 21.5C 11.5 20.299999 12.3 19.5 13.5 19.5L 19.900021 19.5M 11.5 38.9002L 11.5 45.300201C 11.5 46.500198 12.3 47.300201 13.5 47.300201L 19.900021 47.300201M 48.5 38.9002L 48.5 45.300201C 48.5 46.500198 47.700001 47.300201 46.5 47.300201L 39.900002 47.300201M 39.5 38.9002C 37.700001 42.300201 34.299999 44.700199 30.1 44.700199C 24.3001 44.700199 19.700081 39.9002 19.700081 34.300201C 19.700081 28.70014 24.500099 23.900139 30.1 23.900139L 30.296801 23.900139M 43.900002 56.500198C 40.299999 52.9002 35.5 50.700199 30.1 50.700199C 24.700039 50.700199 19.90004 52.9002 16.300039 56.500198M 30.299999 23.900139L 30.299999 44.700199M 19.700081 34.099998L 32.900002 34.099998M 46.621399 22.14996L 46.621399 18.949959M 10 10M 56.2216 28.549999L 48.2216 12.55C 47.4216 11.15 45.4216 11.15 44.621601 12.55L 36.621597 28.549999C 35.821602 29.950001 36.821602 31.549999 38.4216 31.549999L 54.4216 31.549999C 56.021599 31.549999 57.021599 29.950001 56.2216 28.549999ZM 46.621601 26.549959L 46.621601 26.549959"></path></g></g></g><g id="g-root-tx_potencia_hu1gvz1pd124k-stroke" data-item-order="0" transform="translate(375.0009765625, 387)"></g><g id="g-root-10_1cua3en1pcybkf-stroke" data-item-order="0" transform="translate(15.0009765625, 471)"><g id="10_1cua3en1pcybkf-stroke" fill="none" stroke-linecap="round" stroke-linejoin="round" stroke-miterlimit="4" stroke="#1ac3fb" stroke-width="2"><g><path d="M 28 39L 28 29M 42 39L 42 29M 48 39L 48 29M 46 29L 50 29M 24 25L 24 15M 24 15L 25 15C 26.656855 15 28 16.343145 28 18C 28 19.656855 26.656855 21 25 21L 24 21M 20 29L 20 37C 20 38.104568 20.895432 39 22 39L 24 39M 20 15L 18 15C 16.895432 15 16 15.895431 16 17C 16 20 20 20 20 23C 20 24.104568 19.104568 25 18 25L 16 25M 38 39L 38 29L 35 34L 32 29L 32 39M 48 25C 50.209141 25 52 23.209139 52 21L 52 19C 52 16.790861 50.209141 15 48 15ZM 36 25L 34 25C 32.895432 25 32 24.104568 32 23L 32 17C 32 15.895431 32.895432 15 34 15L 36 15M 32 21L 36 21M 44 25L 42 25C 40.895432 25 40 24.104568 40 23L 40 17C 40 15.895431 40.895432 15 42 15L 44 15M 40 21L 44 21M 14 11L 54 11C 54 11 56 11 56 13L 56 55C 56 55 56 57 54 57L 14 57C 14 57 12 57 12 55L 12 13C 12 13 12 11 14 11M 30 53L 30 44C 30 43.621227 29.785997 43.274963 29.447214 43.105572C 29.108429 42.93618 28.703018 42.972736 28.4 43.200001L 26 45M 28 53L 32 53M 42 50C 42 51.656857 40.656853 53 39 53C 37.343147 53 36 51.656857 36 50L 36 46C 36 44.343147 37.343147 43 39 43C 40.656853 43 42 44.343147 42 46Z"></path></g></g></g><g id="g-root-tx_dominioa_4ikyin1pd13pj-stroke" data-item-order="0" transform="translate(75.0009765625, 471)"></g><g id="g-root-diag_8z0ukf1pdavwr-stroke" data-item-order="0" transform="translate(315.0009765625, 471)"><g id="diag_8z0ukf1pdavwr-stroke" fill="none" stroke-linecap="round" stroke-linejoin="round" stroke-miterlimit="4" stroke="#cb68f9" stroke-width="2"><g><path d="M 10 10M 34.499802 33.7006L 20.300041 33.7006M 20.300041 17.300301L 24.1152 17.300301C 25.545921 17.300301 26.49972 18.1003 26.49972 19.300301L 26.49972 49.300201C 26.49972 50.500198 25.545921 51.300201 24.1152 51.300201L 20.300041 51.300201M 15.900021 38.100201C 18.33008 38.100201 20.300041 36.130402 20.300041 33.700199C 20.300041 31.270201 18.33008 29.300301 15.900021 29.300301C 13.46998 29.300301 11.5 31.270201 11.5 33.700199C 11.5 36.130402 13.46998 38.100201 15.900021 38.100201ZM 15.900021 55.100201C 18.33008 55.100201 20.300041 53.130402 20.300041 50.700199C 20.300041 48.270199 18.33008 46.300201 15.900021 46.300201C 13.46998 46.300201 11.5 48.270199 11.5 50.700199C 11.5 53.130402 13.46998 55.100201 15.900021 55.100201ZM 15.900021 21.6999C 18.33008 21.6999 20.300041 19.729961 20.300041 17.2999C 20.300041 14.869841 18.33008 12.8999 15.900021 12.8999C 13.46998 12.8999 11.5 14.869841 11.5 17.2999C 11.5 19.729961 13.46998 21.6999 15.900021 21.6999ZM 45.0998 33.300598C 43.499802 33.300598 42.299801 32.100601 42.299801 30.500601C 42.299801 28.900681 43.499802 27.70068 45.0998 27.70068C 45.899799 27.70068 46.499802 28.100679 47.0998 28.500681M 45.099998 33.300201C 46.700001 33.300201 47.900002 34.500198 47.900002 36.100201C 47.900002 37.700199 46.700001 38.9002 45.099998 38.9002C 44.099998 38.9002 43.299999 38.500198 42.900002 37.700199M 45.0998 25.70068L 45.0998 27.70068M 45.0998 38.900002L 45.0998 40.900002M 56.5 44.7006C 56.5 45.9006 55.700001 46.7006 54.5 46.7006L 36.5 46.7006C 35.299999 46.7006 34.5 45.9006 34.5 44.7006L 34.5 21.70068C 34.5 20.500679 35.299999 19.70068 36.5 19.70068L 48.700001 19.70068C 49.299999 19.70068 49.700001 19.900681 50.099998 20.30068L 55.900002 26.100679C 56.299999 26.500681 56.5 26.900681 56.5 27.500681L 56.5 44.7006Z"></path></g></g></g><g id="g-root-tx_iaenelap_hu1dq71pday9u-stroke" data-item-order="0" transform="translate(111.0009765625, 39)"></g><g id="g-root-tx_pros_1cxegu71pd13ik-stroke" data-item-order="0" transform="translate(75.0009765625, 105)"></g></g></g></svg>