<?xml version="1.0" encoding="utf-8" standalone="yes"?>
<!DOCTYPE svg PUBLIC "-//W3C//DTD SVG 1.1//EN" "http://www.w3.org/Graphics/SVG/1.1/DTD/svg11.dtd">
<svg width="806" height="482" viewBox="0 0 806 482" style="fill:none;stroke:none;fill-rule:evenodd;clip-rule:evenodd;stroke-linecap:round;stroke-linejoin:round;stroke-miterlimit:1.5;" version="1.1" xmlns="http://www.w3.org/2000/svg" xmlns:xlink="http://www.w3.org/1999/xlink"><style class="text-font-style fontImports" data-font-family="Roboto">@import url('https://fonts.googleapis.com/css2?family=Roboto:wght@400;700&amp;display=block');</style><g id="items" style="isolation: isolate"><g id="blend" style="mix-blend-mode: normal"><g id="g-root--1.cu_sy_v3m47j1m1h8ge-fill" data-item-order="-149754" transform="translate(218, 159)"><g id="-1.cu_sy_v3m47j1m1h8ge-fill" stroke="none" fill="#545454"><g><path d="M 125 34L 101 10L 10 166L 34 190L 125 34ZM 125 34L 34 190L 216 190L 125 34Z"></path></g></g></g><g id="g-root-0.line-start_sy_v3m47j1m1h8gf-fill" data-item-order="-149749" transform="translate(195, 261)"></g><g id="g-root-0.cr-small_cr_zjfmbz1m1h8g0-fill" data-item-order="-149748" transform="translate(123, 225)"><g id="0.cr-small_cr_zjfmbz1m1h8g0-fill" stroke="none" fill="#545454"><g><path d="M 10 46C 10 65.882251 26.117749 82 46 82C 65.882251 82 82 65.882251 82 46C 82 26.117749 65.882251 10 46 10C 26.117749 10 10 26.117749 10 46"></path></g></g></g><g id="g-root-4.line_sy_qof3671m1h62x-fill" data-item-order="-149741" transform="translate(287.5, 261)"></g><g id="g-root-4.cr-small_cr_qof3671m1h62y-fill" data-item-order="-149740" transform="translate(543, 357)"><g id="4.cr-small_cr_qof3671m1h62y-fill" stroke="none" fill="#54502f"><g><path d="M 10 40C 10.000002 56.568544 23.431459 70.000002 40.000002 70.000002C 56.568544 70.000002 70.000002 56.568544 70.000002 40.000002C 70.000002 23.431459 56.568544 10.000002 40.000002 10.000002C 23.431459 10.000002 10.000002 23.431459 10.000002 40.000002"></path></g></g></g><g id="g-root-3.line_sy_qof3671m1h62z-fill" data-item-order="-149733" transform="translate(288, 261)"></g><g id="g-root-3.cr-small_cr_m8ll1r1m1h6v8-fill" data-item-order="-149732" transform="translate(543, 273)"><g id="3.cr-small_cr_m8ll1r1m1h6v8-fill" stroke="none" fill="#4b533a"><g><path d="M 10 40C 10.000002 56.568544 23.431459 70.000002 40.000002 70.000002C 56.568544 70.000002 70.000002 56.568544 70.000002 40.000002C 70.000002 23.431459 56.568544 10.000002 40.000002 10.000002C 23.431459 10.000002 10.000002 23.431459 10.000002 40.000002"></path></g></g></g><g id="g-root-2.line_sy_m8ll1r1m1h6v9-fill" data-item-order="-149725" transform="translate(287.5, 219.0001220703125)"></g><g id="g-root-2.cr-small_cr_m8ll1r1m1h6va-fill" data-item-order="-149724" transform="translate(543, 189)"><g id="2.cr-small_cr_m8ll1r1m1h6va-fill" stroke="none" fill="#3b5649"><g><path d="M 10 40C 10.000002 56.568544 23.431459 70.000002 40.000002 70.000002C 56.568544 70.000002 70.000002 56.568544 70.000002 40.000002C 70.000002 23.431459 56.568544 10.000002 40.000002 10.000002C 23.431459 10.000002 10.000002 23.431459 10.000002 40.000002"></path></g></g></g><g id="g-root-1.line_sy_dcyksv1m1h7nz-fill" data-item-order="-149717" transform="translate(287.5, 135)"></g><g id="g-root-1.cr-small_cr_hss2xb1m1h7nk-fill" data-item-order="-149716" transform="translate(543, 105)"><g id="1.cr-small_cr_hss2xb1m1h7nk-fill" stroke="none" fill="#344e57"><g><path d="M 10 40C 10.000002 56.568544 23.431459 70.000002 40.000002 70.000002C 56.568544 70.000002 70.000002 56.568544 70.000002 40.000002C 70.000002 23.431459 56.568544 10.000002 40.000002 10.000002C 23.431459 10.000002 10.000002 23.431459 10.000002 40.000002"></path></g></g></g><g id="g-root-tx_automati_de7m4v1m17bph-fill" data-item-order="0" transform="translate(615, 111)"><g id="tx_automati_de7m4v1m17bph-fill" stroke="none" fill="#f4f4f4"><g><text style="font: 20px Roboto, sans-serif; white-space: pre;" font-size="20px" font-family="Roboto, sans-serif"><tspan x="12" y="34" dominant-baseline="ideographic">Automatización </tspan><tspan x="12" y="58" dominant-baseline="ideographic">de la calificación</tspan></text></g></g></g><g id="g-root-grad_qu1g3z1m14jk0-fill" data-item-order="0" transform="translate(555, 117)"></g><g id="g-root-char_dikxqn1m1366e-fill" data-item-order="0" transform="translate(555, 201)"></g><g id="g-root-tx_generaci_hten671m17e2z-fill" data-item-order="0" transform="translate(615, 195)"><g id="tx_generaci_hten671m17e2z-fill" stroke="none" fill="#f4f4f4"><g><text style="font: 20px Roboto, sans-serif; white-space: pre;" font-size="20px" font-family="Roboto, sans-serif"><tspan x="12" y="34" dominant-baseline="ideographic">Generación de </tspan><tspan x="12" y="58" dominant-baseline="ideographic">informes</tspan></text></g></g></g><g id="g-root-tx_iaenlaed_zkonnz1m17bpp-fill" data-item-order="0" transform="translate(15, 237)"><g id="tx_iaenlaed_zkonnz1m17bpp-fill" stroke="none" fill="#f4f4f4"><g><text style="font: 20px Roboto, sans-serif; white-space: pre;" font-size="20px" font-family="Roboto, sans-serif"><tspan x="38.02" y="34" dominant-baseline="ideographic">IA en la </tspan><tspan x="11.95" y="58" dominant-baseline="ideographic">educación</tspan></text></g></g></g><g id="g-root-2_8x52of1m1h8g9-fill" data-item-order="0" transform="translate(135, 237)"></g><g id="g-root-map_qof6bz1m0yxvm-fill" data-item-order="0" transform="translate(555, 369)"></g><g id="g-root-tx_interacc_qp1nf31m17da9-fill" data-item-order="0" transform="translate(615, 267)"><g id="tx_interacc_qp1nf31m17da9-fill" stroke="none" fill="#f4f4f4"><g><text style="font: 20px Roboto, sans-serif; white-space: pre;" font-size="20px" font-family="Roboto, sans-serif"><tspan x="12" y="34" dominant-baseline="ideographic">Interacción </tspan><tspan x="12" y="58" dominant-baseline="ideographic">mejorada con </tspan><tspan x="12" y="82" dominant-baseline="ideographic">los estudiantes</tspan></text></g></g></g><g id="g-root-trai_144vhe71m10d1l-fill" data-item-order="0" transform="translate(555, 285)"></g><g id="g-root-tx_planific_v4v5jj1m17chz-fill" data-item-order="0" transform="translate(615, 351)"><g id="tx_planific_v4v5jj1m17chz-fill" stroke="none" fill="#f4f4f4"><g><text style="font: 20px Roboto, sans-serif; white-space: pre;" font-size="20px" font-family="Roboto, sans-serif"><tspan x="12" y="34" dominant-baseline="ideographic">Planificación de </tspan><tspan x="12" y="58" dominant-baseline="ideographic">lecciones </tspan><tspan x="12" y="82" dominant-baseline="ideographic">efectiva</tspan></text></g></g></g><g id="g-root-tx_mejorand_4iklvz1m17ci7-fill" data-item-order="0" transform="translate(201, 39)"><g id="tx_mejorand_4iklvz1m17ci7-fill" stroke="none" fill="#f4f4f4"><g><text style="font: 20px Roboto, sans-serif; white-space: pre;" font-size="20px" font-family="Roboto, sans-serif"><tspan x="13.65" y="34" dominant-baseline="ideographic">Automatización de tareas rutinarias</tspan></text></g></g></g><g id="g-root--1.cu_sy_v3m47j1m1h8ge-stroke" data-item-order="-149754" transform="translate(218, 159)"><g id="-1.cu_sy_v3m47j1m1h8ge-stroke" fill="none" stroke-linecap="round" stroke-linejoin="round" stroke-miterlimit="4" stroke="#b7b7b7" stroke-width="2"><g><path d="M 125 34L 101 10L 10 166L 34 190L 125 34ZM 125 34L 34 190L 216 190L 125 34Z"></path></g></g></g><g id="g-root-0.line-start_sy_v3m47j1m1h8gf-stroke" data-item-order="-149749" transform="translate(195, 261)"><g id="0.line-start_sy_v3m47j1m1h8gf-stroke" fill="none" stroke-linecap="round" stroke-linejoin="round" stroke-miterlimit="4" stroke="#b7b7b7" stroke-width="2"><g><path d="M 10 10L 102.5 10"></path></g></g></g><g id="g-root-0.cr-small_cr_zjfmbz1m1h8g0-stroke" data-item-order="-149748" transform="translate(123, 225)"><g id="0.cr-small_cr_zjfmbz1m1h8g0-stroke" fill="none" stroke-linecap="round" stroke-linejoin="round" stroke-miterlimit="4" stroke="#b7b7b7" stroke-width="2"><g><path d="M 10 46C 10 65.882251 26.117749 82 46 82C 65.882251 82 82 65.882251 82 46C 82 26.117749 65.882251 10 46 10C 26.117749 10 10 26.117749 10 46"></path></g></g></g><g id="g-root-4.line_sy_qof3671m1h62x-stroke" data-item-order="-149741" transform="translate(287.5, 261)"><g id="4.line_sy_qof3671m1h62x-stroke" fill="none" stroke-linecap="round" stroke-linejoin="round" stroke-miterlimit="4" stroke="#ffe711" stroke-width="2"><g><path d="M 257.88 134.82L 111.5 28L 10 10"></path><path d="M 249.2 136.5L 258.3 135.1L 256.9 126" stroke-dasharray="none"></path></g></g></g><g id="g-root-4.cr-small_cr_qof3671m1h62y-stroke" data-item-order="-149740" transform="translate(543, 357)"><g id="4.cr-small_cr_qof3671m1h62y-stroke" fill="none" stroke-linecap="round" stroke-linejoin="round" stroke-miterlimit="4" stroke="#ffe711" stroke-width="2"><g><path d="M 10 40C 10.000002 56.568544 23.431459 70.000002 40.000002 70.000002C 56.568544 70.000002 70.000002 56.568544 70.000002 40.000002C 70.000002 23.431459 56.568544 10.000002 40.000002 10.000002C 23.431459 10.000002 10.000002 23.431459 10.000002 40.000002"></path></g></g></g><g id="g-root-3.line_sy_qof3671m1h62z-stroke" data-item-order="-149733" transform="translate(288, 261)"><g id="3.line_sy_qof3671m1h62z-stroke" fill="none" stroke-linecap="round" stroke-linejoin="round" stroke-miterlimit="4" stroke="#a6da37" stroke-width="2"><g><path d="M 257.05 51.55L 104 16L 10 10"></path><path d="M 249.7 56.5L 257.5 51.7L 252.7 43.9" stroke-dasharray="none"></path></g></g></g><g id="g-root-3.cr-small_cr_m8ll1r1m1h6v8-stroke" data-item-order="-149732" transform="translate(543, 273)"><g id="3.cr-small_cr_m8ll1r1m1h6v8-stroke" fill="none" stroke-linecap="round" stroke-linejoin="round" stroke-miterlimit="4" stroke="#a6da37" stroke-width="2"><g><path d="M 10 40C 10.000002 56.568544 23.431459 70.000002 40.000002 70.000002C 56.568544 70.000002 70.000002 56.568544 70.000002 40.000002C 70.000002 23.431459 56.568544 10.000002 40.000002 10.000002C 23.431459 10.000002 10.000002 23.431459 10.000002 40.000002"></path></g></g></g><g id="g-root-2.line_sy_m8ll1r1m1h6v9-stroke" data-item-order="-149725" transform="translate(287.5, 219.0001220703125)"><g id="2.line_sy_m8ll1r1m1h6v9-stroke" fill="none" stroke-linecap="round" stroke-linejoin="round" stroke-miterlimit="4" stroke="#43dd93" stroke-width="2"><g><path d="M 257.55 10.429932L 97.5 45.999932L 10 51.999932"></path><path d="M 253.1 18.129932L 258 10.329932L 250.3 5.429932" stroke-dasharray="none"></path></g></g></g><g id="g-root-2.cr-small_cr_m8ll1r1m1h6va-stroke" data-item-order="-149724" transform="translate(543, 189)"><g id="2.cr-small_cr_m8ll1r1m1h6va-stroke" fill="none" stroke-linecap="round" stroke-linejoin="round" stroke-miterlimit="4" stroke="#43dd93" stroke-width="2"><g><path d="M 10 40C 10.000002 56.568544 23.431459 70.000002 40.000002 70.000002C 56.568544 70.000002 70.000002 56.568544 70.000002 40.000002C 70.000002 23.431459 56.568544 10.000002 40.000002 10.000002C 23.431459 10.000002 10.000002 23.431459 10.000002 40.000002"></path></g></g></g><g id="g-root-1.line_sy_dcyksv1m1h7nz-stroke" data-item-order="-149717" transform="translate(287.5, 135)"><g id="1.line_sy_dcyksv1m1h7nz-stroke" fill="none" stroke-linecap="round" stroke-linejoin="round" stroke-miterlimit="4" stroke="#1ac3fb" stroke-width="2"><g><path d="M 10 135.999956L 90.5 117.999956L 257.81 11.079956"></path><path d="M 256.3 19.779956L 258.2 10.779956L 249.3 8.879956" stroke-dasharray="none"></path></g></g></g><g id="g-root-1.cr-small_cr_hss2xb1m1h7nk-stroke" data-item-order="-149716" transform="translate(543, 105)"><g id="1.cr-small_cr_hss2xb1m1h7nk-stroke" fill="none" stroke-linecap="round" stroke-linejoin="round" stroke-miterlimit="4" stroke="#1ac3fb" stroke-width="2"><g><path d="M 10 40C 10.000002 56.568544 23.431459 70.000002 40.000002 70.000002C 56.568544 70.000002 70.000002 56.568544 70.000002 40.000002C 70.000002 23.431459 56.568544 10.000002 40.000002 10.000002C 23.431459 10.000002 10.000002 23.431459 10.000002 40.000002"></path></g></g></g><g id="g-root-tx_automati_de7m4v1m17bph-stroke" data-item-order="0" transform="translate(615, 111)"></g><g id="g-root-grad_qu1g3z1m14jk0-stroke" data-item-order="0" transform="translate(555, 117)"><g id="grad_qu1g3z1m14jk0-stroke" fill="none" stroke-linecap="round" stroke-linejoin="round" stroke-miterlimit="4" stroke="#1ac3fb" stroke-width="2"><g><path d="M 25.974701 42.474998L 16.674641 42.474998C 14.42464 42.474998 12.624625 40.675003 12.624625 38.425003L 12.624625 15.17497C 12.624625 12.92497 14.42464 11.124977 16.674641 11.124977L 27.624699 11.124977C 30.1747 11.124977 32.124699 13.07497 32.124699 15.624969L 32.124699 23.424969M 12.62464 35.724998L 25.974701 35.724998M 36.625301 35.875C 34.140099 35.875 32.125301 33.860352 32.125301 31.375C 32.125301 28.889648 34.140099 26.875 36.625301 26.875C 39.110649 26.875 41.125301 28.889648 41.125301 31.375C 41.125301 33.860352 39.110649 35.875 36.625301 35.875ZM 29.875301 44.875C 29.875301 41.125 32.875301 38.125 36.625301 38.125C 40.375301 38.125 43.375301 41.125 43.375301 44.875M 10 10M 18.62464 26.875L 21.387461 18.58651C 21.529104 18.161606 21.926741 17.875 22.37464 17.875L 22.37464 17.875C 22.822525 17.875 23.220175 18.161606 23.361805 18.58651L 26.124699 26.875M 19.62463 23.875L 25.124651 23.875"></path></g></g></g><g id="g-root-char_dikxqn1m1366e-stroke" data-item-order="0" transform="translate(555, 201)"><g id="char_dikxqn1m1366e-stroke" fill="none" stroke-linecap="round" stroke-linejoin="round" stroke-miterlimit="4" stroke="#43dd93" stroke-width="2"><g><path d="M 22 28C 22.828428 28 23.5 27.328428 23.5 26.5L 23.5 15.496C 23.499916 15.098207 23.341824 14.716739 23.060499 14.4355L 19.814501 11.1895C 19.53326 10.908176 19.151793 10.750085 18.754 10.75L 12.25 10.75C 11.421573 10.75 10.75 11.421573 10.75 12.25L 10.75 26.5C 10.75 27.328428 11.421573 28 12.25 28ZM 14.5 15.25L 19.375 15.25M 14.5 19.75L 19.375 19.75M 14.5 24.25L 17.875 24.25M 28.75 37C 28.750002 41.556351 32.443653 45.25 37 45.25C 41.556351 45.25 45.25 41.556351 45.25 37C 45.25 32.443653 41.556351 28.750002 37 28.750002C 32.443653 28.750002 28.750002 32.443653 28.750002 37M 45.112 35.5L 37 37L 37 28.75M 37 37L 40.75 44.348499M 43.8475 21.584499C 41.493851 17.932138 37.445045 15.726626 33.099998 15.73L 30.775002 15.73M 34.265499 12.2425L 30.778 15.73L 34.265499 19.216M 11.7565 34C 14.110723 37.650406 18.158791 39.854126 22.502501 39.850002L 24.826 39.849998M 21.34 43.3465L 24.826 39.859001L 21.34 36.373001"></path></g></g></g><g id="g-root-tx_generaci_hten671m17e2z-stroke" data-item-order="0" transform="translate(615, 195)"></g><g id="g-root-tx_iaenlaed_zkonnz1m17bpp-stroke" data-item-order="0" transform="translate(15, 237)"></g><g id="g-root-2_8x52of1m1h8g9-stroke" data-item-order="0" transform="translate(135, 237)"><g id="2_8x52of1m1h8g9-stroke" fill="none" stroke-linecap="round" stroke-linejoin="round" stroke-miterlimit="4" stroke="#b7b7b7" stroke-width="2"><g><path d="M 35.648003 33.686001L 42.324001 19L 49 33.686001M 37.127998 30.431999L 47.52 30.431999M 37.5 45L 53 45C 55.209141 45 57 43.209141 57 41L 57 15C 57 12.790861 55.209141 11 53 11L 17 11C 14.790861 11 13 12.790861 13 15L 13 33.299999M 33 55C 33 56.104568 32.104568 57 31 57L 13 57C 11.895431 57 11 56.104568 11 55L 11 48C 11 41.92487 15.924868 37 22 37C 28.075132 37 33 41.92487 33 48ZM 11 51L 33 51M 17 45.5C 17 45.776142 17.223858 46 17.5 46C 17.776142 46 18 45.776142 18 45.5C 18 45.223858 17.776142 45 17.5 45C 17.223858 45 17 45.223858 17 45.5M 26 45.5C 26 45.776142 26.223858 46 26.5 46C 26.776142 46 27 45.776142 27 45.5C 27 45.223858 26.776142 45 26.5 45C 26.223858 45 26 45.223858 26 45.5M 22 37L 22 33M 19 30C 19 31.656855 20.343147 33 22 33C 23.656855 33 25 31.656855 25 30C 25 28.343147 23.656855 27 22 27C 20.343147 27 19 28.343147 19 30"></path></g></g></g><g id="g-root-map_qof6bz1m0yxvm-stroke" data-item-order="0" transform="translate(555, 369)"><g id="map_qof6bz1m0yxvm-stroke" fill="none" stroke-linecap="round" stroke-linejoin="round" stroke-miterlimit="4" stroke="#ffe711" stroke-width="2"><g><path d="M 33.25 30.25L 43 30.25C 43.828426 30.25 44.5 29.578428 44.5 28.75L 44.5 12.25C 44.5 11.421573 43.828426 10.75 43 10.75L 26.5 10.75C 25.671572 10.75 25 11.421573 25 12.25L 25 23.5M 41.5 30.25L 41.5 38.5M 39.25 13.75L 41.5 16M 41.5 13.75L 39.25 16M 14.5 21.25C 14.5 22.906855 15.843145 24.25 17.5 24.25C 19.156855 24.25 20.5 22.906855 20.5 21.25C 20.5 19.593145 19.156855 18.25 17.5 18.25C 15.843145 18.25 14.5 19.593145 14.5 21.25ZM 14.5 32.5L 14.5 43.75C 14.5 44.578426 15.171573 45.25 16 45.25L 19 45.25C 19.828426 45.25 20.5 44.578426 20.5 43.75L 20.5 32.5M 28 22L 28 28.201M 28 30.870998L 28 45.25M 14.5 37.132C 14.463426 37.960331 13.762347 38.602215 12.93401 38.565769C 12.105673 38.529324 11.46368 37.828339 11.5 37L 11.5 31.75C 11.52352 29.582853 13.037842 27.717926 15.154 27.25L 19.9855 27.25C 21.28121 27.334839 22.486147 27.944893 23.321499 28.938999C 23.58816 29.276022 23.987274 29.481594 24.4165 29.503C 24.844061 29.523338 25.260654 29.363987 25.5655 29.063499L 26.189501 28.439501C 26.778069 27.871042 27.713627 27.879171 28.292229 28.457771C 28.870829 29.036373 28.878958 29.971931 28.310499 30.560499L 27.686501 31.1845C 26.464165 32.435688 24.613291 32.837025 22.9825 32.204498M 35.686001 16.75L 34.8535 17.4175C 34.234245 17.912764 33.918148 18.69516 34.019596 19.481592C 34.12104 20.268024 34.625332 20.944595 35.349998 21.2665L 35.349998 21.2665C 36.067268 21.585655 36.569 22.252419 36.677036 23.030018C 36.785069 23.807615 36.484097 24.585903 35.881001 25.088501L 34.186001 26.5"></path></g></g></g><g id="g-root-tx_interacc_qp1nf31m17da9-stroke" data-item-order="0" transform="translate(615, 267)"></g><g id="g-root-trai_144vhe71m10d1l-stroke" data-item-order="0" transform="translate(555, 285)"><g id="trai_144vhe71m10d1l-stroke" fill="none" stroke-linecap="round" stroke-linejoin="round" stroke-miterlimit="4" stroke="#a6da37" stroke-width="2"><g><path d="M 24.174969 16.824986C 25.748951 16.824986 27.025002 15.54895 27.025002 13.97494C 27.025002 12.40093 25.748951 11.125 24.174969 11.125C 22.60096 11.125 21.324986 12.40093 21.324986 13.97494C 21.324986 15.54895 22.60096 16.824986 24.174969 16.824986ZM 13.97494 22.675014C 15.54895 22.675014 16.824986 21.398994 16.824986 19.824986C 16.824986 18.250975 15.54895 16.974939 13.97494 16.974939C 12.40093 16.974939 11.124953 18.250975 11.124953 19.824986C 11.124953 21.398994 12.40093 22.675014 13.97494 22.675014ZM 34.375 22.675014C 35.948948 22.675014 37.224998 21.398994 37.224998 19.824986C 37.224998 18.250975 35.948948 16.974939 34.375 16.974939C 32.8009 16.974939 31.525002 18.250975 31.525002 19.824986C 31.525002 21.398994 32.8009 22.675014 34.375 22.675014ZM 21.474939 33.025002L 18.32497 33.025002C 17.124969 33.025002 16.374939 31.674999 17.124939 30.625L 22.974939 22.824986C 23.57494 22.074986 24.77494 22.074986 25.375 22.824986L 28.224998 26.575001M 44.875 34.824997L 44.875 38.125M 40.375 37.09375L 40.375 42.713501C 40.375 42.713501 38.125 44.875 34.824997 44.875C 31.525002 44.875 29.125 42.713501 29.125 42.713501L 29.125 37.09375M 10 10M 24.624956 34.824997L 34.675003 39.324997L 44.875 34.824997L 34.675003 30.325001L 24.624956 34.824997Z"></path></g></g></g><g id="g-root-tx_planific_v4v5jj1m17chz-stroke" data-item-order="0" transform="translate(615, 351)"></g><g id="g-root-tx_mejorand_4iklvz1m17ci7-stroke" data-item-order="0" transform="translate(201, 39)"></g></g></g></svg>