<?xml version="1.0" encoding="utf-8" standalone="yes"?>
<!DOCTYPE svg PUBLIC "-//W3C//DTD SVG 1.1//EN" "http://www.w3.org/Graphics/SVG/1.1/DTD/svg11.dtd">
<svg width="926" height="734" viewBox="0 0 926 734" style="fill:none;stroke:none;fill-rule:evenodd;clip-rule:evenodd;stroke-linecap:round;stroke-linejoin:round;stroke-miterlimit:1.5;" version="1.1" xmlns="http://www.w3.org/2000/svg" xmlns:xlink="http://www.w3.org/1999/xlink"><style class="text-font-style fontImports" data-font-family="Roboto">@import url('https://fonts.googleapis.com/css2?family=Roboto:wght@400;700&amp;display=block');</style><g id="items" style="isolation: isolate"><g id="blend" style="mix-blend-mode: normal"><g id="g-root-4.cu_sy_dl2hha1q79o21-fill" data-item-order="-504570" transform="translate(315, 99)"><g id="4.cu_sy_dl2hha1q79o21-fill" stroke="none" fill="#ffebf7"><g><path d="M 298 586C 457.058 586 586 457.058 586 298C 586 138.942 457.058 10 298 10C 138.942 10 10 138.942 10 298C 10 457.058 138.942 586 298 586ZM 298 586C 417.294 586 514 489.294 514 370C 514 250.706 417.294 154 298 154C 178.706 154 82 250.706 82 370C 82 489.294 178.706 586 298 586Z"></path></g></g></g><g id="g-root-4.Subtract_sy_958zcu1q79oua-fill" data-item-order="-504565" transform="translate(15, 159)"></g><g id="g-root-3.cu_sy_958zcu1q79oub-fill" data-item-order="-504562" transform="translate(387, 243)"><g id="3.cu_sy_958zcu1q79oub-fill" stroke="none" fill="#ffeceb"><g><path d="M 226 442C 345.294 442 442 345.294 442 226C 442 106.7065 345.294 10 226 10C 106.7065 10 10 106.7065 10 226C 10 345.294 106.7065 442 226 442ZM 226 442C 146.471 442 82 377.529 82 298C 82 218.471 146.471 154 226 154C 305.529 154 370 218.471 370 298C 370 377.529 305.529 442 226 442Z"></path></g></g></g><g id="g-root-3.Subtract_sy_9lz3y1q79pn0-fill" data-item-order="-504557" transform="translate(15, 303)"></g><g id="g-root-2.cu_sy_9lz3y1q79pn1-fill" data-item-order="-504554" transform="translate(459, 387)"><g id="2.cu_sy_9lz3y1q79pn1-fill" stroke="none" fill="#fff2e5"><g><path d="M 154 298C 233.529 298 298 233.529 298 154C 298 74.471 233.529 10 154 10C 74.471 10 10 74.471 10 154C 10 233.529 74.471 298 154 298ZM 154 298C 114.235 298 82 265.764 82 226C 82 186.236 114.235 154 154 154C 193.764 154 226 186.236 226 226C 226 265.764 193.764 298 154 298Z"></path></g></g></g><g id="g-root-2.Subtract_sy_9lz3y1q79pn2-fill" data-item-order="-504549" transform="translate(15, 447)"></g><g id="g-root-1.cu_sy_1uuwiym1q79q87-fill" data-item-order="-504546" transform="translate(531, 531)"><g id="1.cu_sy_1uuwiym1q79q87-fill" stroke="none" fill="#fffbda"><g><path d="M 154 82C 154 121.765 121.765 154 82 154C 42.2355 154 10 121.765 10 82C 10 42.2355 42.2355 10 82 10C 121.765 10 154 42.2355 154 82Z"></path></g></g></g><g id="g-root-1.Subtract_sy_1uuwiym1q79q88-fill" data-item-order="-504541" transform="translate(15, 591)"></g><g id="g-root-tx_intelige_m7yuim1q7b40a-fill" data-item-order="0" transform="translate(27, 123)"><g id="tx_intelige_m7yuim1q7b40a-fill" stroke="none" fill="#de58a9"><g><text style="font: bold 20px Roboto, sans-serif; white-space: pre;" font-weight="bold" font-size="20px" font-family="Roboto, sans-serif"><tspan x="12" y="34" dominant-baseline="ideographic">Inteligencia Artificial </tspan></text></g></g></g><g id="g-root-side_dg2ry61q6u9kw-fill" data-item-order="0" transform="translate(579, 147)"></g><g id="g-root-tx_aprendiz_8x4t8e1q7b2fg-fill" data-item-order="0" transform="translate(27, 267)"><g id="tx_aprendiz_8x4t8e1q7b2fg-fill" stroke="none" fill="#e55753"><g><text style="font: bold 20px Roboto, sans-serif; white-space: pre;" font-weight="bold" font-size="20px" font-family="Roboto, sans-serif"><tspan x="12" y="34" dominant-baseline="ideographic">Aprendizaje Automático</tspan></text></g></g></g><g id="g-root-1_zjfg1q1q6u8ei-fill" data-item-order="0" transform="translate(579, 291)"></g><g id="g-root-tx_aprendiz_4hbb3y1q7b37q-fill" data-item-order="0" transform="translate(27, 411)"><g id="tx_aprendiz_4hbb3y1q7b37q-fill" stroke="none" fill="#de8431"><g><text style="font: bold 20px Roboto, sans-serif; white-space: pre;" font-weight="bold" font-size="20px" font-family="Roboto, sans-serif"><tspan x="12" y="34" dominant-baseline="ideographic">Aprendizaje Profundo</tspan></text></g></g></g><g id="g-root-1_hu0uta1q6rgne-fill" data-item-order="0" transform="translate(579, 435)"></g><g id="g-root-tx_iagenera_1hszi1q7b400-fill" data-item-order="0" transform="translate(27, 555)"><g id="tx_iagenera_1hszi1q7b400-fill" stroke="none" fill="#e0cb15"><g><text style="font: bold 20px Roboto, sans-serif; white-space: pre;" font-weight="bold" font-size="20px" font-family="Roboto, sans-serif"><tspan x="12" y="34" dominant-baseline="ideographic">IA Generativa</tspan></text></g></g></g><g id="g-root-inte_1q6yupq1q7b4lm-fill" data-item-order="0" transform="translate(579, 579)"></g><g id="g-root-4.cu_sy_dl2hha1q79o21-stroke" data-item-order="-504570" transform="translate(315, 99)"><g id="4.cu_sy_dl2hha1q79o21-stroke" fill="none" stroke-linecap="round" stroke-linejoin="round" stroke-miterlimit="4" stroke="#de58a9" stroke-width="2"><g><path d="M 298 586C 457.058 586 586 457.058 586 298C 586 138.942 457.058 10 298 10C 138.942 10 10 138.942 10 298C 10 457.058 138.942 586 298 586ZM 298 586C 417.2935 586 514 489.2935 514 370C 514 250.7065 417.2935 154 298 154C 178.7065 154 82 250.7065 82 370C 82 489.2935 178.7065 586 298 586Z"></path></g></g></g><g id="g-root-4.Subtract_sy_958zcu1q79oua-stroke" data-item-order="-504565" transform="translate(15, 159)"><g id="4.Subtract_sy_958zcu1q79oua-stroke" fill="none" stroke-linecap="round" stroke-linejoin="round" stroke-miterlimit="4" stroke="#de58a9" stroke-width="2"><style>.fillAsHole-142zvum1qqxmoa { fill:#FFFFFF; }</style><g><path d="M 13 10L 422 10"></path><path d="M 7 10C 7 11.656854 8.343146 13 10 13C 11.656854 13 13 11.656854 13 10C 13 8.343146 11.656854 7 10 7C 8.343146 7 7 8.343146 7 10Z" stroke-dasharray="none" class="fillAsHole-142zvum1qqxmoa"></path></g></g></g><g id="g-root-3.cu_sy_958zcu1q79oub-stroke" data-item-order="-504562" transform="translate(387, 243)"><g id="3.cu_sy_958zcu1q79oub-stroke" fill="none" stroke-linecap="round" stroke-linejoin="round" stroke-miterlimit="4" stroke="#e55753" stroke-width="2"><g><path d="M 226 442C 345.2935 442 442 345.2935 442 226C 442 106.7065 345.2935 10 226 10C 106.7065 10 10 106.7065 10 226C 10 345.2935 106.7065 442 226 442ZM 226 442C 146.471 442 82 377.529 82 298C 82 218.471 146.471 154 226 154C 305.529 154 370 218.471 370 298C 370 377.529 305.529 442 226 442Z"></path></g></g></g><g id="g-root-3.Subtract_sy_9lz3y1q79pn0-stroke" data-item-order="-504557" transform="translate(15, 303)"><g id="3.Subtract_sy_9lz3y1q79pn0-stroke" fill="none" stroke-linecap="round" stroke-linejoin="round" stroke-miterlimit="4" stroke="#e55753" stroke-width="2"><style>.fillAsHole-ddlo1q1qqtg5r { fill:#FFFFFF; }</style><g><path d="M 13 10L 448 10"></path><path d="M 7 10C 7 11.656854 8.343146 13 10 13C 11.656854 13 13 11.656854 13 10C 13 8.343146 11.656854 7 10 7C 8.343146 7 7 8.343146 7 10Z" stroke-dasharray="none" class="fillAsHole-ddlo1q1qqtg5r"></path></g></g></g><g id="g-root-2.cu_sy_9lz3y1q79pn1-stroke" data-item-order="-504554" transform="translate(459, 387)"><g id="2.cu_sy_9lz3y1q79pn1-stroke" fill="none" stroke-linecap="round" stroke-linejoin="round" stroke-miterlimit="4" stroke="#de8431" stroke-width="2"><g><path d="M 154 298C 233.529 298 298 233.529 298 154C 298 74.471 233.529 10 154 10C 74.471 10 10 74.471 10 154C 10 233.529 74.471 298 154 298ZM 154 298C 114.2355 298 82 265.7645 82 226C 82 186.2355 114.2355 154 154 154C 193.7645 154 226 186.2355 226 226C 226 265.7645 193.7645 298 154 298Z"></path></g></g></g><g id="g-root-2.Subtract_sy_9lz3y1q79pn2-stroke" data-item-order="-504549" transform="translate(15, 447)"><g id="2.Subtract_sy_9lz3y1q79pn2-stroke" fill="none" stroke-linecap="round" stroke-linejoin="round" stroke-miterlimit="4" stroke="#de8431" stroke-width="2"><style>.fillAsHole-htf6661qqtg5c { fill:#FFFFFF; }</style><g><path d="M 481 10L 13 10"></path><path d="M 7 10C 7 11.656854 8.343146 13 10 13C 11.656854 13 13 11.656854 13 10C 13 8.343146 11.656854 7 10 7C 8.343146 7 7 8.343146 7 10Z" stroke-dasharray="none" class="fillAsHole-htf6661qqtg5c"></path></g></g></g><g id="g-root-1.cu_sy_1uuwiym1q79q87-stroke" data-item-order="-504546" transform="translate(531, 531)"><g id="1.cu_sy_1uuwiym1q79q87-stroke" fill="none" stroke-linecap="round" stroke-linejoin="round" stroke-miterlimit="4" stroke="#e0cb15" stroke-width="2"><g><path d="M 154 82C 154 121.7645 121.7645 154 82 154C 42.2355 154 10 121.7645 10 82C 10 42.2355 42.2355 10 82 10C 121.7645 10 154 42.2355 154 82Z"></path></g></g></g><g id="g-root-1.Subtract_sy_1uuwiym1q79q88-stroke" data-item-order="-504541" transform="translate(15, 591)"><g id="1.Subtract_sy_1uuwiym1q79q88-stroke" fill="none" stroke-linecap="round" stroke-linejoin="round" stroke-miterlimit="4" stroke="#e0cb15" stroke-width="2"><style>.fillAsHole-8xs5xa1qqtgy1 { fill:#FFFFFF; }</style><g><path d="M 13 10L 527 10"></path><path d="M 7 10C 7 11.656854 8.343146 13 10 13C 11.656854 13 13 11.656854 13 10C 13 8.343146 11.656854 7 10 7C 8.343146 7 7 8.343146 7 10Z" stroke-dasharray="none" class="fillAsHole-8xs5xa1qqtgy1"></path></g></g></g><g id="g-root-tx_intelige_m7yuim1q7b40a-stroke" data-item-order="0" transform="translate(27, 123)"></g><g id="g-root-side_dg2ry61q6u9kw-stroke" data-item-order="0" transform="translate(579, 147)"><g id="side_dg2ry61q6u9kw-stroke" fill="none" stroke-linecap="round" stroke-linejoin="round" stroke-miterlimit="4" stroke="#de58a9" stroke-width="2"><g><path d="M 17.247313 21.898825C 18.904005 21.898825 20.247011 20.55582 20.247011 18.899126C 20.247011 17.242453 18.904005 15.899427 17.247313 15.899427C 15.590638 15.899427 14.247614 17.242453 14.247614 18.899126C 14.247614 20.55582 15.590638 21.898825 17.247313 21.898825ZM 10 10M 20.247011 18.899126L 30.993891 18.899126M 14.499548 36.897297C 16.156242 36.897297 17.499247 35.554234 17.499247 33.897598C 17.499247 32.240967 16.156242 30.8979 14.499548 30.8979C 12.842854 30.8979 11.499849 32.240967 11.499849 33.897598C 11.499849 35.554234 12.842854 36.897297 14.499548 36.897297ZM 10 10M 17.499247 33.897598L 30.993891 33.897598M 17.247313 51.895794C 18.904005 51.895794 20.247011 50.552727 20.247011 48.896095C 20.247011 47.239456 18.904005 45.896397 17.247313 45.896397C 15.590638 45.896397 14.247614 47.239456 14.247614 48.896095C 14.247614 50.552727 15.590638 51.895794 17.247313 51.895794ZM 10 10M 20.24897 48.896095L 30.993891 48.896095M 21.24691 41.896797L 25.24651 41.896797L 25.24651 48.884895M 24.120661 26.898323L 30.993891 26.898323M 30.993891 11.899834C 47.192265 11.899834 50.591923 25.098503 56.391338 40.096977C 56.791302 41.296856 55.991379 42.496735 54.791504 42.496735L 50.591923 42.496735L 50.591923 49.296051C 50.591923 53.095669 47.592224 56.095367 43.792606 56.095367L 30.993891 56.095367L 30.993891 11.899834ZM 44.590126 44.896496C 45.590027 46.896294 48.589725 46.896294 50.589523 46.896294M 43.592625 32.297562C 43.371845 32.297562 43.192665 32.11858 43.192665 31.8976C 43.192665 31.676823 43.371845 31.497641 43.592625 31.497641M 43.592625 32.297562C 43.813404 32.297562 43.992584 32.11858 43.992584 31.8976C 43.992584 31.676823 43.813404 31.497641 43.592625 31.497641"></path></g></g></g><g id="g-root-tx_aprendiz_8x4t8e1q7b2fg-stroke" data-item-order="0" transform="translate(27, 267)"></g><g id="g-root-1_zjfg1q1q6u8ei-stroke" data-item-order="0" transform="translate(579, 291)"><g id="1_zjfg1q1q6u8ei-stroke" fill="none" stroke-linecap="round" stroke-linejoin="round" stroke-miterlimit="4" stroke="#e55753" stroke-width="2"><g><path d="M 20.498945 38.497139L 20.498945 47.496235L 11.499849 47.496235M 47.496235 29.498041L 47.496235 20.498945L 56.495331 20.498945M 48.096172 20.498945C 51.495831 24.098585 53.495632 28.698122 53.495632 34.09758C 53.495632 44.896496 44.696514 53.69561 33.897598 53.69561C 31.297859 53.69561 28.698162 53.095669 26.298403 52.29575M 19.899025 47.496235C 16.499367 43.896595 14.499548 39.297058 14.499548 33.897598C 14.499548 23.098724 23.298664 14.299608 34.09758 14.299608C 36.697319 14.299608 39.297058 14.899548 41.696815 15.699468M 10 10M 28.185673 40.971889L 32.467545 28.126059C 32.687122 27.467505 33.303459 27.023312 33.997589 27.023312L 33.997589 27.023312C 34.691719 27.023312 35.30806 27.467505 35.527634 28.126059L 39.809605 40.971889M 29.735518 36.322357L 38.259762 36.322357"></path></g></g></g><g id="g-root-tx_aprendiz_4hbb3y1q7b37q-stroke" data-item-order="0" transform="translate(27, 411)"></g><g id="g-root-1_hu0uta1q6rgne-stroke" data-item-order="0" transform="translate(579, 435)"><g id="1_hu0uta1q6rgne-stroke" fill="none" stroke-linecap="round" stroke-linejoin="round" stroke-miterlimit="4" stroke="#de8431" stroke-width="2"><g><path d="M 16.347363 45.928391L 11.999799 56.995281M 17.999197 56.995281L 19.785017 46.996284M 51.647816 45.928391L 55.99538 56.995281M 49.995983 56.995281L 48.210163 46.996284M 38.661121 34.729515L 45.876396 40.500935M 22.118782 40.500935L 29.332058 34.729515M 18.621134 39.033085L 17.659231 28.936098M 30.193972 48.220161L 22.612734 44.682518M 45.380444 44.684517L 37.801208 48.220161M 50.329948 28.998093L 49.374043 39.023083M 37.695217 16.523344L 47.410244 20.522943M 20.582937 20.522943L 30.301962 16.521345M 14.999497 42.996685C 14.999497 45.205605 16.790178 46.996284 18.999096 46.996284C 21.208014 46.996284 22.998693 45.205605 22.998693 42.996685C 22.998693 40.787769 21.208014 38.997086 18.999096 38.997086C 16.790178 38.997086 14.999497 40.787769 14.999497 42.996685ZM 29.997992 14.999497C 29.997992 17.208414 31.788673 18.999096 33.997589 18.999096C 36.206505 18.999096 37.997189 17.208414 37.997189 14.999497C 37.997189 12.790581 36.206505 10.9999 33.997589 10.9999C 31.788673 10.9999 29.997992 12.790581 29.997992 14.999497ZM 11.999799 23.998594C 11.999799 26.759739 14.238151 28.998093 16.999296 28.998093C 19.760445 28.998093 21.998795 26.759739 21.998795 23.998594C 21.998795 21.237448 19.760445 18.999096 16.999296 18.999096C 14.238151 18.999096 11.999799 21.237448 11.999799 23.998594ZM 44.996487 42.996685C 44.996487 45.205605 46.787163 46.996284 48.996082 46.996284C 51.205002 46.996284 52.995682 45.205605 52.995682 42.996685C 52.995682 40.787769 51.205002 38.997086 48.996082 38.997086C 46.787163 38.997086 44.996487 40.787769 44.996487 42.996685ZM 45.996384 23.998594C 45.996384 26.759739 48.234734 28.998093 50.995884 28.998093C 53.75703 28.998093 55.99538 26.759739 55.99538 23.998594C 55.99538 21.237448 53.75703 18.999096 50.995884 18.999096C 48.234734 18.999096 45.996384 21.237448 45.996384 23.998594ZM 28.42815 28.770115L 18.999096 24.998493M 48.996082 24.998493L 39.56303 28.772114M 33.997589 18.999096L 33.997589 24.998493M 36.211369 36.57333L 38.997086 56.995281M 28.998093 56.995281L 31.783812 36.57333M 27.998192 30.99789C 27.998192 34.311268 30.684216 36.997288 33.997589 36.997288C 37.310966 36.997288 39.996986 34.311268 39.996986 30.99789C 39.996986 27.684517 37.310966 24.998495 33.997589 24.998495C 30.684216 24.998495 27.998192 27.684517 27.998192 30.99789Z"></path></g></g></g><g id="g-root-tx_iagenera_1hszi1q7b400-stroke" data-item-order="0" transform="translate(27, 555)"></g><g id="g-root-inte_1q6yupq1q7b4lm-stroke" data-item-order="0" transform="translate(579, 579)"><g id="inte_1q6yupq1q7b4lm-stroke" fill="none" stroke-linecap="round" stroke-linejoin="round" stroke-miterlimit="4" stroke="#e0cb15" stroke-width="2"><g><path d="M 31.743816 50.32415C 31.743816 53.643818 29.064184 56.323547 25.744518 56.323547C 22.424852 56.323547 19.745121 53.643818 19.745121 50.32415C 19.745121 49.924191 19.785118 49.544228 19.865108 49.164268C 19.505144 49.264256 19.145182 49.324253 18.745222 49.324253C 16.545443 49.324253 14.745624 47.524429 14.745624 45.324654C 14.745624 44.104774 15.285569 43.024879 16.145483 42.284958C 13.665731 41.984985 11.745918 39.885201 11.745918 37.325455C 11.745918 34.765713 13.665731 32.665924 16.145483 32.365955C 15.285569 31.626028 14.745624 30.546137 14.745624 29.326178C 14.745624 27.1264 16.545443 25.32658 18.745222 25.32658C 19.245173 25.32658 19.745121 25.426571 20.185078 25.586555C 19.905106 24.886625 19.745121 24.126701 19.745121 23.326782C 19.745121 20.007114 22.424852 17.327385 25.744518 17.327385C 29.064184 17.327385 31.743816 20.007114 31.743816 23.326782M 10 10M 31.743816 50.331947L 31.743816 22.686226M 16.054071 32.392551C 18.413555 32.226166 19.681347 33.12468 20.538862 34.563934M 19.84667 49.170067C 22.315662 48.507732 23.522322 46.969887 24.009092 45.574627M 43.64122 49.170067C 41.17207 48.507732 39.965588 46.969887 39.478638 45.574627M 31.743816 23.217432C 31.743816 26.596672 28.884842 28.474165 27.361536 28.646566M 43.476639 16.811316L 52.247757 16.811316C 52.247757 16.811316 56.247353 16.811316 56.247353 20.810915L 56.247353 25.858406C 56.247353 25.858406 56.247353 29.858006 52.247757 29.858006L 43.476639 29.858006C 43.476639 29.858006 39.477039 29.858006 39.477039 25.858406L 39.477039 20.810915C 39.477039 20.810915 39.477039 16.811316 43.476639 16.811316M 10 10M 47.863396 11.665985L 47.863396 16.811815M 10 10M 45.11367 22.175177L 45.11367 24.498543M 10 10M 50.613121 22.175177L 50.613121 24.498543M 31.743816 50.230961C 31.743816 53.550625 34.423546 56.230358 37.743214 56.230358C 41.062881 56.230358 43.742611 53.550625 43.742611 50.230961C 43.742611 49.830997 43.702618 49.451038 43.622623 49.071075C 43.982586 49.171066 44.342552 49.23106 44.742508 49.23106C 46.942287 49.23106 48.742107 47.43124 48.742107 45.231461C 48.742107 44.011581 48.202164 42.931694 47.342251 42.191765C 49.821999 41.891796 51.741806 39.792007 51.741806 37.232265C 51.741806 36.119175 51.378841 35.093079 50.764507 34.263962M 31.743816 23.23369C 31.743816 21.626133 32.372353 20.168638 33.397449 19.092846"></path></g></g></g></g></g></svg>