<?xml version="1.0" encoding="utf-8" standalone="yes"?>
<!DOCTYPE svg PUBLIC "-//W3C//DTD SVG 1.1//EN" "http://www.w3.org/Graphics/SVG/1.1/DTD/svg11.dtd">
<svg width="770" height="458" viewBox="0 0 770 458" style="fill:none;stroke:none;fill-rule:evenodd;clip-rule:evenodd;stroke-linecap:round;stroke-linejoin:round;stroke-miterlimit:1.5;" version="1.1" xmlns="http://www.w3.org/2000/svg" xmlns:xlink="http://www.w3.org/1999/xlink"><style class="text-font-style fontImports" data-font-family="Roboto">@import url('https://fonts.googleapis.com/css2?family=Roboto:wght@400;700&amp;display=block');</style><g id="items" style="isolation: isolate"><g id="blend" style="mix-blend-mode: normal"><g id="g-root--1.cu_sy_1hcll1r1n59x58-fill" data-item-order="-110586" transform="translate(327, 111)"><g id="-1.cu_sy_1hcll1r1n59x58-fill" stroke="none" fill="#545454"><g><path d="M 65.766602 298C 80.754802 298 106.000002 233.529 106.000002 154C 106.000002 74.471 80.754802 10 65.766602 10C 80.775202 10.0075 92.941702 74.6668 92.941702 154C 92.941702 233.333 80.775202 297.992 65.766602 298ZM 65.765897 298C 80.774597 297.992 92.941097 233.333 92.941097 154C 92.941097 74.6668 80.774597 10.0075 65.765897 10L 51.957397 10C 66.060697 15.1659 77.199297 77.8539 77.199297 154C 77.199297 230.146 65.382597 292.834 51.279297 298L 65.765897 298ZM 77.2 154C 77.2 230.146 65.3833 292.834 51.28 298L 50.0615 298C 35.0734 298 10 233.529 10 154C 10 74.471 35.0734 10 50.0615 10C 50.6991 10 51.9581 10 51.9581 10C 66.0614 15.1659 77.2 77.8539 77.2 154Z"></path></g></g></g><g id="g-root-0.cr-medium_cr_1cws2xb1n59xxh-fill" data-item-order="-110582" transform="translate(495, 219)"><g id="0.cr-medium_cr_1cws2xb1n59xxh-fill" stroke="none" fill="#545454"><g><path d="M 10 46C 10 65.882251 26.117749 82 46 82C 65.882251 82 82 65.882251 82 46C 82 26.117749 65.882251 10 46 10C 26.117749 10 10 26.117749 10 46"></path></g></g></g><g id="g-root-3.line_sy_1cws2xb1n59xxi-fill" data-item-order="-110575" transform="translate(243.109375, 279)"></g><g id="g-root-3.cr-small_cr_1cws2xb1n59xxj-fill" data-item-order="-110574" transform="translate(183, 309)"><g id="3.cr-small_cr_1cws2xb1n59xxj-fill" stroke="none" fill="#4b533a"><g><path d="M 10 40C 10.000002 56.568544 23.431459 70.000002 40.000002 70.000002C 56.568544 70.000002 70.000002 56.568544 70.000002 40.000002C 70.000002 23.431459 56.568544 10.000002 40.000002 10.000002C 23.431459 10.000002 10.000002 23.431459 10.000002 40.000002"></path></g></g></g><g id="g-root-2.line_sy_1cws2xb1n59xxk-fill" data-item-order="-110567" transform="translate(243, 255)"></g><g id="g-root-2.cr-small_cr_18gyksv1n59ypt-fill" data-item-order="-110566" transform="translate(183, 225)"><g id="2.cr-small_cr_18gyksv1n59ypt-fill" stroke="none" fill="#3b5649"><g><path d="M 10 40C 10.000002 56.568544 23.431459 70.000002 40.000002 70.000002C 56.568544 70.000002 70.000002 56.568544 70.000002 40.000002C 70.000002 23.431459 56.568544 10.000002 40.000002 10.000002C 23.431459 10.000002 10.000002 23.431459 10.000002 40.000002"></path></g></g></g><g id="g-root-1.line_sy_18gyksv1n59ypu-fill" data-item-order="-110559" transform="translate(243, 171)"></g><g id="g-root-1.cr-small_cr_18gyksv1n59ypv-fill" data-item-order="-110558" transform="translate(183, 141)"><g id="1.cr-small_cr_18gyksv1n59ypv-fill" stroke="none" fill="#54502f"><g><path d="M 10 40C 10.000002 56.568544 23.431459 70.000002 40.000002 70.000002C 56.568544 70.000002 70.000002 56.568544 70.000002 40.000002C 70.000002 23.431459 56.568544 10.000002 40.000002 10.000002C 23.431459 10.000002 10.000002 23.431459 10.000002 40.000002"></path></g></g></g><g id="g-root-tx_herramie_mccyj31n5e51d-fill" data-item-order="0" transform="translate(159, 39)"><g id="tx_herramie_mccyj31n5e51d-fill" stroke="none" fill="#f4f4f4"><g><text style="font: 20px Roboto, sans-serif; white-space: pre;" font-size="20px" font-family="Roboto, sans-serif"><tspan x="13.93" y="34" dominant-baseline="ideographic">Herramientas de IA para la inclusión educativa</tspan></text></g></g></g><g id="g-root-tx_traducci_qrjzkf1n5e7ev-fill" data-item-order="0" transform="translate(39, 147)"><g id="tx_traducci_qrjzkf1n5e7ev-fill" stroke="none" fill="#f4f4f4"><g><text style="font: 20px Roboto, sans-serif; white-space: pre;" font-size="20px" font-family="Roboto, sans-serif"><tspan x="14.36" y="34" dominant-baseline="ideographic">Traducción en </tspan><tspan x="39.91" y="58" dominant-baseline="ideographic">tiempo real</tspan></text></g></g></g><g id="g-root-glob_vb4c7j1n5cqhb-fill" data-item-order="0" transform="translate(195, 153)"></g><g id="g-root-tx_transcri_v7dhov1n5e6ml-fill" data-item-order="0" transform="translate(39, 231)"><g id="tx_transcri_v7dhov1n5e6ml-fill" stroke="none" fill="#f4f4f4"><g><text style="font: 20px Roboto, sans-serif; white-space: pre;" font-size="20px" font-family="Roboto, sans-serif"><tspan x="19.03" y="34" dominant-baseline="ideographic">Transcripción </tspan><tspan x="39.16" y="58" dominant-baseline="ideographic">automática</tspan></text></g></g></g><g id="g-root-grap_252hb1n5csuf-fill" data-item-order="0" transform="translate(195, 237)"></g><g id="g-root-lapt_zlbkjz1n59zik-fill" data-item-order="0" transform="translate(507, 231)"></g><g id="g-root-tx_educacin_18iu0271n5e51l-fill" data-item-order="0" transform="translate(579, 231)"><g id="tx_educacin_18iu0271n5e51l-fill" stroke="none" fill="#f4f4f4"><g><text style="font: 20px Roboto, sans-serif; white-space: pre;" font-size="20px" font-family="Roboto, sans-serif"><tspan x="12" y="34" dominant-baseline="ideographic">Educación más </tspan><tspan x="12" y="58" dominant-baseline="ideographic">accesible</tspan></text></g></g></g><g id="g-root-tx_lecturad_1430hxr1n5e5tv-fill" data-item-order="0" transform="translate(15, 327)"><g id="tx_lecturad_1430hxr1n5e5tv-fill" stroke="none" fill="#f4f4f4"><g><text style="font: 20px Roboto, sans-serif; white-space: pre;" font-size="20px" font-family="Roboto, sans-serif"><tspan x="20.69" y="34" dominant-baseline="ideographic">Lectura de texto</tspan></text></g></g></g><g id="g-root-qura_1q6d61b1n5bcaw-fill" data-item-order="0" transform="translate(195, 321)"></g><g id="g-root--1.cu_sy_1hcll1r1n59x58-stroke" data-item-order="-110586" transform="translate(327, 111)"><g id="-1.cu_sy_1hcll1r1n59x58-stroke" fill="none" stroke-linecap="round" stroke-linejoin="round" stroke-miterlimit="4" stroke="#b7b7b7" stroke-width="2"><g><path d="M 65.766602 298C 80.754802 298 106.000002 233.529 106.000002 154C 106.000002 74.471 80.754802 10 65.766602 10C 80.775202 10.0075 92.941702 74.6668 92.941702 154C 92.941702 233.3332 80.775202 297.9925 65.766602 298ZM 65.765897 298C 80.774597 297.9925 92.941097 233.3332 92.941097 154C 92.941097 74.6668 80.774597 10.0075 65.765897 10L 51.957397 10C 66.060697 15.1659 77.199297 77.8539 77.199297 154C 77.199297 230.1462 65.382597 292.8341 51.279297 298L 65.765897 298ZM 77.2 154C 77.2 230.1462 65.3833 292.8341 51.28 298L 50.0615 298C 35.0734 298 10 233.529 10 154C 10 74.471 35.0734 10 50.0615 10C 50.6991 10 51.9581 10 51.9581 10C 66.0614 15.1659 77.2 77.8539 77.2 154Z"></path></g></g></g><g id="g-root-0.cr-medium_cr_1cws2xb1n59xxh-stroke" data-item-order="-110582" transform="translate(495, 219)"><g id="0.cr-medium_cr_1cws2xb1n59xxh-stroke" fill="none" stroke-linecap="round" stroke-linejoin="round" stroke-miterlimit="4" stroke="#b7b7b7" stroke-width="2"><g><path d="M 10 46C 10 65.882251 26.117749 82 46 82C 65.882251 82 82 65.882251 82 46C 82 26.117749 65.882251 10 46 10C 26.117749 10 10 26.117749 10 46"></path></g></g></g><g id="g-root-3.line_sy_1cws2xb1n59xxi-stroke" data-item-order="-110575" transform="translate(243.109375, 279)"><g id="3.line_sy_1cws2xb1n59xxi-stroke" fill="none" stroke-linecap="round" stroke-linejoin="round" stroke-miterlimit="4" stroke="#a6da37" stroke-width="2"><g><path d="M 254.08061 10.859863L 129.89061 69.999863L 10.00061 69.999863"></path><path d="M 251.50061 19.259863L 254.50061 10.659863L 245.90061 7.559863" stroke-dasharray="none"></path></g></g></g><g id="g-root-3.cr-small_cr_1cws2xb1n59xxj-stroke" data-item-order="-110574" transform="translate(183, 309)"><g id="3.cr-small_cr_1cws2xb1n59xxj-stroke" fill="none" stroke-linecap="round" stroke-linejoin="round" stroke-miterlimit="4" stroke="#a6da37" stroke-width="2"><g><path d="M 10 40C 10.000002 56.568544 23.431459 70.000002 40.000002 70.000002C 56.568544 70.000002 70.000002 56.568544 70.000002 40.000002C 70.000002 23.431459 56.568544 10.000002 40.000002 10.000002C 23.431459 10.000002 10.000002 23.431459 10.000002 40.000002"></path></g></g></g><g id="g-root-2.line_sy_1cws2xb1n59xxk-stroke" data-item-order="-110567" transform="translate(243, 255)"><g id="2.line_sy_1cws2xb1n59xxk-stroke" fill="none" stroke-linecap="round" stroke-linejoin="round" stroke-miterlimit="4" stroke="#43dd93" stroke-width="2"><g><path d="M 248 10L 130 10L 10 10"></path><path d="M 242 16.5L 248.5 10L 242 3.5" stroke-dasharray="none"></path></g></g></g><g id="g-root-2.cr-small_cr_18gyksv1n59ypt-stroke" data-item-order="-110566" transform="translate(183, 225)"><g id="2.cr-small_cr_18gyksv1n59ypt-stroke" fill="none" stroke-linecap="round" stroke-linejoin="round" stroke-miterlimit="4" stroke="#43dd93" stroke-width="2"><g><path d="M 10 40C 10.000002 56.568544 23.431459 70.000002 40.000002 70.000002C 56.568544 70.000002 70.000002 56.568544 70.000002 40.000002C 70.000002 23.431459 56.568544 10.000002 40.000002 10.000002C 23.431459 10.000002 10.000002 23.431459 10.000002 40.000002"></path></g></g></g><g id="g-root-1.line_sy_18gyksv1n59ypu-stroke" data-item-order="-110559" transform="translate(243, 171)"><g id="1.line_sy_18gyksv1n59ypu-stroke" fill="none" stroke-linecap="round" stroke-linejoin="round" stroke-miterlimit="4" stroke="#ffe711" stroke-width="2"><g><path d="M 254.19 69.14L 130 10L 10 10"></path><path d="M 246 72.4L 254.6 69.4L 251.6 60.7" stroke-dasharray="none"></path></g></g></g><g id="g-root-1.cr-small_cr_18gyksv1n59ypv-stroke" data-item-order="-110558" transform="translate(183, 141)"><g id="1.cr-small_cr_18gyksv1n59ypv-stroke" fill="none" stroke-linecap="round" stroke-linejoin="round" stroke-miterlimit="4" stroke="#ffe711" stroke-width="2"><g><path d="M 10 40C 10.000002 56.568544 23.431459 70.000002 40.000002 70.000002C 56.568544 70.000002 70.000002 56.568544 70.000002 40.000002C 70.000002 23.431459 56.568544 10.000002 40.000002 10.000002C 23.431459 10.000002 10.000002 23.431459 10.000002 40.000002"></path></g></g></g><g id="g-root-tx_herramie_mccyj31n5e51d-stroke" data-item-order="0" transform="translate(159, 39)"></g><g id="g-root-tx_traducci_qrjzkf1n5e7ev-stroke" data-item-order="0" transform="translate(39, 147)"></g><g id="g-root-glob_vb4c7j1n5cqhb-stroke" data-item-order="0" transform="translate(195, 153)"><g id="glob_vb4c7j1n5cqhb-stroke" fill="none" stroke-linecap="round" stroke-linejoin="round" stroke-miterlimit="4" stroke="#ffe711" stroke-width="2"><g><path d="M 28 44.875C 18.680195 44.875 11.125 37.319805 11.125 28C 11.125 18.680195 18.680195 11.125 28 11.125M 12.097 22.375L 26.875 22.375M 12.103 33.625L 26.875 33.625M 28 44.875C 23.650002 44.875 20.125 37.3195 20.125 28C 20.125 18.6805 23.650002 11.125 28 11.125M 42.625 16.299999L 35.875 16.299999C 33.3895 16.299999 32.125 18.314501 32.125 20.799999C 32.125 27.549999 43.375 27.549999 43.375 34.300003C 43.375 36.7855 42.1105 38.800003 39.625 38.800003L 32.125 38.800003M 30.625 30.549999L 44.875 30.549999M 30.625 24.549999L 44.875 24.549999"></path></g></g></g><g id="g-root-tx_transcri_v7dhov1n5e6ml-stroke" data-item-order="0" transform="translate(39, 231)"></g><g id="g-root-grap_252hb1n5csuf-stroke" data-item-order="0" transform="translate(195, 237)"><g id="grap_252hb1n5csuf-stroke" fill="none" stroke-linecap="round" stroke-linejoin="round" stroke-miterlimit="4" stroke="#43dd93" stroke-width="2"><g><path d="M 11.5 25L 11.5 31M 16 20.5L 16 35.5M 20.5 16L 20.5 40M 25 11.5L 25 44.5M 29.5 16L 29.5 40M 34 23.5L 34 28M 44.5 29.875L 35.438499 30.631001C 33.604 30.782499 33.604 33.466 35.438499 33.618999L 44.5 34.375"></path></g></g></g><g id="g-root-lapt_zlbkjz1n59zik-stroke" data-item-order="0" transform="translate(507, 231)"><g id="lapt_zlbkjz1n59zik-stroke" fill="none" stroke-linecap="round" stroke-linejoin="round" stroke-miterlimit="4" stroke="#b7b7b7" stroke-width="2"><g><path d="M 51.046001 45.542L 51.872002 55.566002M 13.616 16.74C 13.615882 19.452908 15.815094 21.652214 18.528 21.652214C 21.240906 21.652214 23.440119 19.452908 23.440001 16.74C 23.440119 14.027094 21.240906 11.827785 18.528 11.827785C 15.815094 11.827785 13.615882 14.027094 13.616 16.74M 32.826 29.4L 32.809998 29.4L 24.51 29.448L 18.422001 24.542C 18.364 24.493999 18.298 24.462 18.236 24.42C 18.14175 24.34798 18.043602 24.281212 17.942001 24.220001C 17.836899 24.168045 17.728695 24.122625 17.618 24.084C 17.544001 24.063999 17.476 24.028 17.4 24C 17.252392 23.959078 17.101992 23.928997 16.950001 23.91C 16.908001 23.91 16.869999 23.889999 16.826 23.886L 16.826 23.886C 16.76 23.886 16.694 23.886 16.625999 23.886C 15.699132 23.851845 14.810165 24.255583 14.226 24.976002L 14.2 25C 14.15 25.060001 14.116 25.130001 14.072001 25.200001C 14.028 25.27 13.941999 25.382 13.888 25.482C 13.836222 25.58881 13.790156 25.698299 13.75 25.809998C 13.722 25.883999 13.688 25.952 13.664 26.028C 13.624603 26.168978 13.595856 26.312716 13.578 26.458C 13.578 26.507999 13.554 26.552 13.55 26.6L 13.55 26.628L 13.55 26.628L 12.134 41.321999C 11.995907 42.818745 12.986786 44.186653 14.452 44.521999L 25.094 46.956001L 25.813999 53.495998C 25.979542 55.019844 27.267193 56.173813 28.800001 56.172001C 28.910872 56.172604 29.021698 56.167263 29.131998 56.155998C 30.779779 55.974869 31.968327 54.49165 31.786001 52.844002L 30.832001 44.183998C 30.693638 42.912731 29.764637 41.868908 28.518 41.584L 18.358 39.265999L 19 32.708L 21.576 34.799999C 22.109709 35.230057 22.774588 35.464386 23.459999 35.464001L 23.478001 35.464001L 32.844002 35.41C 34.500565 35.404625 35.839233 34.057571 35.834267 32.401001C 35.829296 30.744434 34.482567 29.405436 32.826 29.41ZM 47.942001 28.656L 46.57 37.641998L 39.348 37.697998M 39.764 45.542L 38.938 55.566002M 35.966 41.66L 54.844002 41.66C 54.844002 41.66 55.880001 41.66 55.880001 42.695999L 55.880001 44.507999C 55.880001 44.507999 55.880001 45.543999 54.844002 45.543999L 35.966 45.543999C 35.966 45.543999 34.93 45.543999 34.93 44.507999L 34.93 42.695999C 34.93 42.695999 34.93 41.66 35.966 41.66"></path></g></g></g><g id="g-root-tx_educacin_18iu0271n5e51l-stroke" data-item-order="0" transform="translate(579, 231)"></g><g id="g-root-tx_lecturad_1430hxr1n5e5tv-stroke" data-item-order="0" transform="translate(15, 327)"></g><g id="g-root-qura_1q6d61b1n5bcaw-stroke" data-item-order="0" transform="translate(195, 321)"><g id="qura_1q6d61b1n5bcaw-stroke" fill="none" stroke-linecap="round" stroke-linejoin="round" stroke-miterlimit="4" stroke="#a6da37" stroke-width="2"><g><path d="M 28 32.049999L 28 44.34985M 15.946435 23.349926C 14.891755 23.199924 13.837045 23.199924 12.63169 23.049925C 12.17968 23.049925 11.878375 23.199924 11.57704 23.499926C 11.275698 23.799925 11.125 24.099926 11.125 24.549925L 11.125 36.399849C 11.125 37.59985 12.02905 38.649849 13.234406 38.649849C 22.123915 39.09985 27.2467 41.949997 28 44.5C 28.7533 41.949997 33.876099 39.09985 42.765549 38.649849C 43.970951 38.649849 44.875 37.59985 44.875 36.399849L 44.875 24.549925C 44.875 24.099926 44.724251 23.799925 44.422901 23.499926C 44.1217 23.199924 43.820351 23.049925 43.368252 23.049925C 42.104649 23.133804 40.888 23.264561 39.74485 23.416016M 10 10M 34.9795 18.6889L 33.7729 20.778625M 10 10M 32.1427 18.776245L 33.7729 20.778835M 10 10M 31.288149 21.86521L 33.7729 20.77882M 10 10M 34.074551 23.473734L 33.7729 20.778685M 10 10M 36.3223 21.189236L 33.7729 20.778805M 30.584049 26.458C 30.390999 26.478849 30.195702 26.489651 29.998751 26.489651C 26.8069 26.489651 24.253374 23.93623 24.253374 20.744394C 24.253374 17.552574 26.8069 14.99911 29.998751 14.99911C 30.445749 14.99911 30.87685 15.047035 31.288 15.1369C 30.087399 14.146615 28.5112 13.52515 26.727699 13.52515C 22.811081 13.52515 19.677759 16.65847 19.677759 20.575119C 19.677759 24.49177 22.811081 27.625151 26.727699 27.625151C 28.119699 27.625151 29.438499 27.1861 30.584049 26.458Z"></path></g></g></g></g></g></svg>