<?xml version="1.0" encoding="utf-8" standalone="yes"?>
<!DOCTYPE svg PUBLIC "-//W3C//DTD SVG 1.1//EN" "http://www.w3.org/Graphics/SVG/1.1/DTD/svg11.dtd">
<svg width="74" height="74" viewBox="0 0 74 74" style="fill:none;stroke:none;fill-rule:evenodd;clip-rule:evenodd;stroke-linecap:round;stroke-linejoin:round;stroke-miterlimit:1.5;" version="1.1" xmlns="http://www.w3.org/2000/svg" xmlns:xlink="http://www.w3.org/1999/xlink"><g id="items" style="isolation: isolate"><g id="blend" style="mix-blend-mode: normal"><g id="g-root-side_dg2ry61q6u9kw-fill" data-item-order="0" transform="translate(3, 3)"></g><g id="g-root-side_dg2ry61q6u9kw-stroke" data-item-order="0" transform="translate(3, 3)"><g id="side_dg2ry61q6u9kw-stroke" fill="none" stroke-linecap="round" stroke-linejoin="round" stroke-miterlimit="4" stroke="#de58a9" stroke-width="2"><g><path d="M 17.247313 21.898825C 18.904005 21.898825 20.247011 20.55582 20.247011 18.899126C 20.247011 17.242453 18.904005 15.899427 17.247313 15.899427C 15.590638 15.899427 14.247614 17.242453 14.247614 18.899126C 14.247614 20.55582 15.590638 21.898825 17.247313 21.898825ZM 10 10M 20.247011 18.899126L 30.993891 18.899126M 14.499548 36.897297C 16.156242 36.897297 17.499247 35.554234 17.499247 33.897598C 17.499247 32.240967 16.156242 30.8979 14.499548 30.8979C 12.842854 30.8979 11.499849 32.240967 11.499849 33.897598C 11.499849 35.554234 12.842854 36.897297 14.499548 36.897297ZM 10 10M 17.499247 33.897598L 30.993891 33.897598M 17.247313 51.895794C 18.904005 51.895794 20.247011 50.552727 20.247011 48.896095C 20.247011 47.239456 18.904005 45.896397 17.247313 45.896397C 15.590638 45.896397 14.247614 47.239456 14.247614 48.896095C 14.247614 50.552727 15.590638 51.895794 17.247313 51.895794ZM 10 10M 20.24897 48.896095L 30.993891 48.896095M 21.24691 41.896797L 25.24651 41.896797L 25.24651 48.884895M 24.120661 26.898323L 30.993891 26.898323M 30.993891 11.899834C 47.192265 11.899834 50.591923 25.098503 56.391338 40.096977C 56.791302 41.296856 55.991379 42.496735 54.791504 42.496735L 50.591923 42.496735L 50.591923 49.296051C 50.591923 53.095669 47.592224 56.095367 43.792606 56.095367L 30.993891 56.095367L 30.993891 11.899834ZM 44.590126 44.896496C 45.590027 46.896294 48.589725 46.896294 50.589523 46.896294M 43.592625 32.297562C 43.371845 32.297562 43.192665 32.11858 43.192665 31.8976C 43.192665 31.676823 43.371845 31.497641 43.592625 31.497641M 43.592625 32.297562C 43.813404 32.297562 43.992584 32.11858 43.992584 31.8976C 43.992584 31.676823 43.813404 31.497641 43.592625 31.497641"></path></g></g></g></g></g></svg>