<?xml version="1.0" encoding="utf-8" standalone="yes"?>
<!DOCTYPE svg PUBLIC "-//W3C//DTD SVG 1.1//EN" "http://www.w3.org/Graphics/SVG/1.1/DTD/svg11.dtd">
<svg width="74" height="74" viewBox="0 0 74 74" style="fill:none;stroke:none;fill-rule:evenodd;clip-rule:evenodd;stroke-linecap:round;stroke-linejoin:round;stroke-miterlimit:1.5;" version="1.1" xmlns="http://www.w3.org/2000/svg" xmlns:xlink="http://www.w3.org/1999/xlink"><g id="items" style="isolation: isolate"><g id="blend" style="mix-blend-mode: normal"><g id="g-root-1_zjfg1q1q6u8ei-fill" data-item-order="0" transform="translate(3, 3)"></g><g id="g-root-1_zjfg1q1q6u8ei-stroke" data-item-order="0" transform="translate(3, 3)"><g id="1_zjfg1q1q6u8ei-stroke" fill="none" stroke-linecap="round" stroke-linejoin="round" stroke-miterlimit="4" stroke="#e55753" stroke-width="2"><g><path d="M 20.498945 38.497139L 20.498945 47.496235L 11.499849 47.496235M 47.496235 29.498041L 47.496235 20.498945L 56.495331 20.498945M 48.096172 20.498945C 51.495831 24.098585 53.495632 28.698122 53.495632 34.09758C 53.495632 44.896496 44.696514 53.69561 33.897598 53.69561C 31.297859 53.69561 28.698162 53.095669 26.298403 52.29575M 19.899025 47.496235C 16.499367 43.896595 14.499548 39.297058 14.499548 33.897598C 14.499548 23.098724 23.298664 14.299608 34.09758 14.299608C 36.697319 14.299608 39.297058 14.899548 41.696815 15.699468M 10 10M 28.185673 40.971889L 32.467545 28.126059C 32.687122 27.467505 33.303459 27.023312 33.997589 27.023312L 33.997589 27.023312C 34.691719 27.023312 35.30806 27.467505 35.527634 28.126059L 39.809605 40.971889M 29.735518 36.322357L 38.259762 36.322357"></path></g></g></g></g></g></svg>