<?xml version="1.0" encoding="utf-8" standalone="yes"?>
<!DOCTYPE svg PUBLIC "-//W3C//DTD SVG 1.1//EN" "http://www.w3.org/Graphics/SVG/1.1/DTD/svg11.dtd">
<svg width="74" height="74" viewBox="0 0 74 74" style="fill:none;stroke:none;fill-rule:evenodd;clip-rule:evenodd;stroke-linecap:round;stroke-linejoin:round;stroke-miterlimit:1.5;" version="1.1" xmlns="http://www.w3.org/2000/svg" xmlns:xlink="http://www.w3.org/1999/xlink"><g id="items" style="isolation: isolate"><g id="blend" style="mix-blend-mode: normal"><g id="g-root-1_hu0uta1q6rgne-fill" data-item-order="0" transform="translate(3, 3)"></g><g id="g-root-1_hu0uta1q6rgne-stroke" data-item-order="0" transform="translate(3, 3)"><g id="1_hu0uta1q6rgne-stroke" fill="none" stroke-linecap="round" stroke-linejoin="round" stroke-miterlimit="4" stroke="#de8431" stroke-width="2"><g><path d="M 16.347363 45.928391L 11.999799 56.995281M 17.999197 56.995281L 19.785017 46.996284M 51.647816 45.928391L 55.99538 56.995281M 49.995983 56.995281L 48.210163 46.996284M 38.661121 34.729515L 45.876396 40.500935M 22.118782 40.500935L 29.332058 34.729515M 18.621134 39.033085L 17.659231 28.936098M 30.193972 48.220161L 22.612734 44.682518M 45.380444 44.684517L 37.801208 48.220161M 50.329948 28.998093L 49.374043 39.023083M 37.695217 16.523344L 47.410244 20.522943M 20.582937 20.522943L 30.301962 16.521345M 14.999497 42.996685C 14.999497 45.205605 16.790178 46.996284 18.999096 46.996284C 21.208014 46.996284 22.998693 45.205605 22.998693 42.996685C 22.998693 40.787769 21.208014 38.997086 18.999096 38.997086C 16.790178 38.997086 14.999497 40.787769 14.999497 42.996685ZM 29.997992 14.999497C 29.997992 17.208414 31.788673 18.999096 33.997589 18.999096C 36.206505 18.999096 37.997189 17.208414 37.997189 14.999497C 37.997189 12.790581 36.206505 10.9999 33.997589 10.9999C 31.788673 10.9999 29.997992 12.790581 29.997992 14.999497ZM 11.999799 23.998594C 11.999799 26.759739 14.238151 28.998093 16.999296 28.998093C 19.760445 28.998093 21.998795 26.759739 21.998795 23.998594C 21.998795 21.237448 19.760445 18.999096 16.999296 18.999096C 14.238151 18.999096 11.999799 21.237448 11.999799 23.998594ZM 44.996487 42.996685C 44.996487 45.205605 46.787163 46.996284 48.996082 46.996284C 51.205002 46.996284 52.995682 45.205605 52.995682 42.996685C 52.995682 40.787769 51.205002 38.997086 48.996082 38.997086C 46.787163 38.997086 44.996487 40.787769 44.996487 42.996685ZM 45.996384 23.998594C 45.996384 26.759739 48.234734 28.998093 50.995884 28.998093C 53.75703 28.998093 55.99538 26.759739 55.99538 23.998594C 55.99538 21.237448 53.75703 18.999096 50.995884 18.999096C 48.234734 18.999096 45.996384 21.237448 45.996384 23.998594ZM 28.42815 28.770115L 18.999096 24.998493M 48.996082 24.998493L 39.56303 28.772114M 33.997589 18.999096L 33.997589 24.998493M 36.211369 36.57333L 38.997086 56.995281M 28.998093 56.995281L 31.783812 36.57333M 27.998192 30.99789C 27.998192 34.311268 30.684216 36.997288 33.997589 36.997288C 37.310966 36.997288 39.996986 34.311268 39.996986 30.99789C 39.996986 27.684517 37.310966 24.998495 33.997589 24.998495C 30.684216 24.998495 27.998192 27.684517 27.998192 30.99789Z"></path></g></g></g></g></g></svg>