<?xml version="1.0" encoding="utf-8" standalone="yes"?>
<!DOCTYPE svg PUBLIC "-//W3C//DTD SVG 1.1//EN" "http://www.w3.org/Graphics/SVG/1.1/DTD/svg11.dtd">
<svg width="74" height="74" viewBox="0 0 74 74" style="fill:none;stroke:none;fill-rule:evenodd;clip-rule:evenodd;stroke-linecap:round;stroke-linejoin:round;stroke-miterlimit:1.5;" version="1.1" xmlns="http://www.w3.org/2000/svg" xmlns:xlink="http://www.w3.org/1999/xlink"><g id="items" style="isolation: isolate"><g id="blend" style="mix-blend-mode: normal"><g id="g-root-inte_1q6yupq1q7b4lm-fill" data-item-order="0" transform="translate(3, 3)"></g><g id="g-root-inte_1q6yupq1q7b4lm-stroke" data-item-order="0" transform="translate(3, 3)"><g id="inte_1q6yupq1q7b4lm-stroke" fill="none" stroke-linecap="round" stroke-linejoin="round" stroke-miterlimit="4" stroke="#e0cb15" stroke-width="2"><g><path d="M 31.743816 50.32415C 31.743816 53.643818 29.064184 56.323547 25.744518 56.323547C 22.424852 56.323547 19.745121 53.643818 19.745121 50.32415C 19.745121 49.924191 19.785118 49.544228 19.865108 49.164268C 19.505144 49.264256 19.145182 49.324253 18.745222 49.324253C 16.545443 49.324253 14.745624 47.524429 14.745624 45.324654C 14.745624 44.104774 15.285569 43.024879 16.145483 42.284958C 13.665731 41.984985 11.745918 39.885201 11.745918 37.325455C 11.745918 34.765713 13.665731 32.665924 16.145483 32.365955C 15.285569 31.626028 14.745624 30.546137 14.745624 29.326178C 14.745624 27.1264 16.545443 25.32658 18.745222 25.32658C 19.245173 25.32658 19.745121 25.426571 20.185078 25.586555C 19.905106 24.886625 19.745121 24.126701 19.745121 23.326782C 19.745121 20.007114 22.424852 17.327385 25.744518 17.327385C 29.064184 17.327385 31.743816 20.007114 31.743816 23.326782M 10 10M 31.743816 50.331947L 31.743816 22.686226M 16.054071 32.392551C 18.413555 32.226166 19.681347 33.12468 20.538862 34.563934M 19.84667 49.170067C 22.315662 48.507732 23.522322 46.969887 24.009092 45.574627M 43.64122 49.170067C 41.17207 48.507732 39.965588 46.969887 39.478638 45.574627M 31.743816 23.217432C 31.743816 26.596672 28.884842 28.474165 27.361536 28.646566M 43.476639 16.811316L 52.247757 16.811316C 52.247757 16.811316 56.247353 16.811316 56.247353 20.810915L 56.247353 25.858406C 56.247353 25.858406 56.247353 29.858006 52.247757 29.858006L 43.476639 29.858006C 43.476639 29.858006 39.477039 29.858006 39.477039 25.858406L 39.477039 20.810915C 39.477039 20.810915 39.477039 16.811316 43.476639 16.811316M 10 10M 47.863396 11.665985L 47.863396 16.811815M 10 10M 45.11367 22.175177L 45.11367 24.498543M 10 10M 50.613121 22.175177L 50.613121 24.498543M 31.743816 50.230961C 31.743816 53.550625 34.423546 56.230358 37.743214 56.230358C 41.062881 56.230358 43.742611 53.550625 43.742611 50.230961C 43.742611 49.830997 43.702618 49.451038 43.622623 49.071075C 43.982586 49.171066 44.342552 49.23106 44.742508 49.23106C 46.942287 49.23106 48.742107 47.43124 48.742107 45.231461C 48.742107 44.011581 48.202164 42.931694 47.342251 42.191765C 49.821999 41.891796 51.741806 39.792007 51.741806 37.232265C 51.741806 36.119175 51.378841 35.093079 50.764507 34.263962M 31.743816 23.23369C 31.743816 21.626133 32.372353 20.168638 33.397449 19.092846"></path></g></g></g></g></g></svg>