<?xml version="1.0" encoding="utf-8" standalone="yes"?>
<!DOCTYPE svg PUBLIC "-//W3C//DTD SVG 1.1//EN" "http://www.w3.org/Graphics/SVG/1.1/DTD/svg11.dtd">
<svg width="74" height="74" viewBox="0 0 74 74" style="fill:none;stroke:none;fill-rule:evenodd;clip-rule:evenodd;stroke-linecap:round;stroke-linejoin:round;stroke-miterlimit:1.5;" version="1.1" xmlns="http://www.w3.org/2000/svg" xmlns:xlink="http://www.w3.org/1999/xlink"><g id="items" style="isolation: isolate"><g id="blend" style="mix-blend-mode: normal"><g id="g-root-2_1hiu2is29jrij-fill" data-item-order="0" transform="translate(3, 3)"></g><g id="g-root-2_1hiu2is29jrij-stroke" data-item-order="0" transform="translate(3, 3)"><g id="2_1hiu2is29jrij-stroke" fill="none" stroke-linecap="round" stroke-linejoin="round" stroke-miterlimit="4" stroke="#1eabda" stroke-width="2"><g><path d="M 13 22.007999L 55 22.007999M 19 17.507999L 19 17.507999M 19 17.507999C 18.797047 17.508026 18.614243 17.63073 18.537344 17.818552C 18.460445 18.006374 18.504711 18.222046 18.649372 18.364393C 18.794037 18.506741 19.010393 18.547522 19.196949 18.467604C 19.383507 18.387688 19.503246 18.202927 19.5 18C 19.5 17.723858 19.276142 17.5 19 17.5M 23 17.507999L 23 17.507999M 23 17.507999C 22.797047 17.508026 22.614243 17.63073 22.537344 17.818552C 22.460445 18.006374 22.504711 18.222046 22.649372 18.364393C 22.794037 18.506741 23.010393 18.547522 23.196949 18.467604C 23.383507 18.387688 23.503246 18.202927 23.5 18C 23.5 17.723858 23.276142 17.5 23 17.5M 27 17.507999L 27 17.507999M 27 17.507999C 26.797047 17.508026 26.614243 17.63073 26.537344 17.818552C 26.460445 18.006374 26.504711 18.222046 26.649374 18.364393C 26.794035 18.506741 27.010393 18.547522 27.196951 18.467604C 27.383507 18.387688 27.503246 18.202927 27.5 18C 27.5 17.723858 27.276142 17.5 27 17.5M 23 44L 17.052 44C 14.833405 44.002346 13.026306 42.218441 13 40L 13 18C 13.025227 15.781101 14.83296 13.996566 17.052 14L 51.051998 14C 52.107643 14.00153 53.118843 14.425125 53.860397 15.176447C 54.601952 15.927769 55.01228 16.944426 55 18L 55 40C 55.01228 41.055573 54.601952 42.072231 53.860397 42.823551C 53.118843 43.574875 52.107643 43.998466 51.051998 44L 45 44M 43 39.007999L 35 31.007999L 27 39.007999M 35 54.007999L 35 31.007999"></path></g></g></g></g></g></svg>