<?xml version="1.0" encoding="utf-8" standalone="yes"?>
<!DOCTYPE svg PUBLIC "-//W3C//DTD SVG 1.1//EN" "http://www.w3.org/Graphics/SVG/1.1/DTD/svg11.dtd">
<svg width="74" height="74" viewBox="0 0 74 74" style="fill:none;stroke:none;fill-rule:evenodd;clip-rule:evenodd;stroke-linecap:round;stroke-linejoin:round;stroke-miterlimit:1.5;" version="1.1" xmlns="http://www.w3.org/2000/svg" xmlns:xlink="http://www.w3.org/1999/xlink"><g id="items" style="isolation: isolate"><g id="blend" style="mix-blend-mode: normal"><g id="g-root-lapt_zlbkjz1n59zik-fill" data-item-order="0" transform="translate(3, 3)"></g><g id="g-root-lapt_zlbkjz1n59zik-stroke" data-item-order="0" transform="translate(3, 3)"><g id="lapt_zlbkjz1n59zik-stroke" fill="none" stroke-linecap="round" stroke-linejoin="round" stroke-miterlimit="4" stroke="#a8dd38" stroke-width="2"><g><path d="M 51.046001 45.542L 51.872002 55.566002M 13.616 16.74C 13.615882 19.452908 15.815094 21.652214 18.528 21.652214C 21.240906 21.652214 23.440119 19.452908 23.440001 16.74C 23.440119 14.027094 21.240906 11.827785 18.528 11.827785C 15.815094 11.827785 13.615882 14.027094 13.616 16.74M 32.826 29.4L 32.809998 29.4L 24.51 29.448L 18.422001 24.542C 18.364 24.493999 18.298 24.462 18.236 24.42C 18.14175 24.34798 18.043602 24.281212 17.942001 24.220001C 17.836899 24.168045 17.728695 24.122625 17.618 24.084C 17.544001 24.063999 17.476 24.028 17.4 24C 17.252392 23.959078 17.101992 23.928997 16.950001 23.91C 16.908001 23.91 16.869999 23.889999 16.826 23.886L 16.826 23.886C 16.76 23.886 16.694 23.886 16.625999 23.886C 15.699132 23.851845 14.810165 24.255583 14.226 24.976002L 14.2 25C 14.15 25.060001 14.116 25.130001 14.072001 25.200001C 14.028 25.27 13.941999 25.382 13.888 25.482C 13.836222 25.58881 13.790156 25.698299 13.75 25.809998C 13.722 25.883999 13.688 25.952 13.664 26.028C 13.624603 26.168978 13.595856 26.312716 13.578 26.458C 13.578 26.507999 13.554 26.552 13.55 26.6L 13.55 26.628L 13.55 26.628L 12.134 41.321999C 11.995907 42.818745 12.986786 44.186653 14.452 44.521999L 25.094 46.956001L 25.813999 53.495998C 25.979542 55.019844 27.267193 56.173813 28.800001 56.172001C 28.910872 56.172604 29.021698 56.167263 29.131998 56.155998C 30.779779 55.974869 31.968327 54.49165 31.786001 52.844002L 30.832001 44.183998C 30.693638 42.912731 29.764637 41.868908 28.518 41.584L 18.358 39.265999L 19 32.708L 21.576 34.799999C 22.109709 35.230057 22.774588 35.464386 23.459999 35.464001L 23.478001 35.464001L 32.844002 35.41C 34.500565 35.404625 35.839233 34.057571 35.834267 32.401001C 35.829296 30.744434 34.482567 29.405436 32.826 29.41ZM 47.942001 28.656L 46.57 37.641998L 39.348 37.697998M 39.764 45.542L 38.938 55.566002M 35.966 41.66L 54.844002 41.66C 54.844002 41.66 55.880001 41.66 55.880001 42.695999L 55.880001 44.507999C 55.880001 44.507999 55.880001 45.543999 54.844002 45.543999L 35.966 45.543999C 35.966 45.543999 34.93 45.543999 34.93 44.507999L 34.93 42.695999C 34.93 42.695999 34.93 41.66 35.966 41.66"></path></g></g></g></g></g></svg>